<svg width="40" height="40" viewBox="0 0 40 40" fill="none" xmlns="http://www.w3.org/2000/svg">
<rect x="1" y="1" width="38" height="38" rx="19" stroke="#DDE1F3" stroke-width="2"/>
<path d="M13.2754 26.7246C12.9082 26.3551 12.9082 25.7584 13.2754 25.389L25.3333 13.3311C25.5648 13.0608 25.9283 12.9431 26.2743 13.0263C26.6203 13.1095 26.8905 13.3797 26.9737 13.7257C27.0569 14.0717 26.9392 14.4352 26.6689 14.6667L14.611 26.7246C14.2416 27.0918 13.6449 27.0918 13.2754 26.7246Z" fill="#DDE1F3"/>
<path d="M13.2754 13.2754C13.6449 12.9082 14.2416 12.9082 14.611 13.2754L26.6689 25.3333C26.9392 25.5648 27.0569 25.9283 26.9737 26.2743C26.8905 26.6203 26.6203 26.8905 26.2743 26.9737C25.9283 27.0569 25.5648 26.9392 25.3333 26.6689L13.2754 14.611C12.9082 14.2416 12.9082 13.6449 13.2754 13.2754Z" fill="#DDE1F3"/>
</svg>
