<svg width="20" height="20" viewBox="0 0 20 20" fill="none" xmlns="http://www.w3.org/2000/svg">
<path fill-rule="evenodd" clip-rule="evenodd" d="M11.7681 9.36095H14.0746C14.4243 9.36095 14.6991 9.07181 14.6991 8.72313C14.6991 8.36596 14.4243 8.08532 14.0746 8.08532H11.7681C11.4183 8.08532 11.1436 8.36596 11.1436 8.72313C11.1436 9.07181 11.4183 9.36095 11.7681 9.36095ZM16.8141 4.9396C17.3221 4.9396 17.6552 5.11819 17.9882 5.50938C18.3213 5.90058 18.3796 6.46186 18.3046 6.97126L17.5136 12.55C17.3637 13.6224 16.4644 14.4125 15.4069 14.4125H6.32232C5.21485 14.4125 4.29889 13.5459 4.2073 12.4233L3.44123 3.15286L2.18387 2.93175C1.8508 2.87222 1.61765 2.54055 1.67594 2.20038C1.73422 1.85256 2.05897 1.62209 2.40037 1.67397L4.38632 1.97927C4.66944 2.03115 4.87761 2.26842 4.90259 2.55756L5.0608 4.46251C5.08578 4.7355 5.30228 4.9396 5.56874 4.9396H16.8141ZM6.18892 15.7566C5.48946 15.7566 4.92324 16.3349 4.92324 17.0492C4.92324 17.7551 5.48946 18.3334 6.18892 18.3334C6.88005 18.3334 7.44627 17.7551 7.44627 17.0492C7.44627 16.3349 6.88005 15.7566 6.18892 15.7566ZM15.5566 15.7566C14.8572 15.7566 14.2909 16.3349 14.2909 17.0492C14.2909 17.7551 14.8572 18.3334 15.5566 18.3334C16.2477 18.3334 16.814 17.7551 16.814 17.0492C16.814 16.3349 16.2477 15.7566 15.5566 15.7566Z" fill="white"/>
</svg>
