<svg width="105" height="105" viewBox="0 0 105 105" fill="none" xmlns="http://www.w3.org/2000/svg">
<g opacity="0.45" filter="url(#filter0_f_501_56884)">
<rect x="25" y="25" width="55" height="55" rx="27.5" fill="url(#paint0_linear_501_56884)"/>
</g>
<rect x="25" y="25" width="55" height="55" rx="27.5" fill="url(#paint1_linear_501_56884)"/>
<path d="M62.878 57.7404C62.8502 57.681 62.8242 57.6316 62.8001 57.5921C62.401 56.8801 61.6385 56.0062 60.5128 54.9701L60.4891 54.9464L60.4771 54.9348L60.4651 54.9228H60.453C59.9422 54.4404 59.6186 54.116 59.4832 53.9499C59.2353 53.6335 59.1798 53.3133 59.3152 52.9888C59.4109 52.7437 59.7705 52.2259 60.393 51.4349C60.7205 51.0157 60.9798 50.6797 61.1713 50.4266C62.5525 48.6074 63.1514 47.445 62.9677 46.9388L62.8963 46.8205C62.8484 46.7492 62.7246 46.6841 62.5253 46.6247C62.3255 46.5654 62.0701 46.5556 61.7586 46.5951L58.3099 46.6187C58.254 46.5991 58.1742 46.6009 58.0703 46.6247C57.9665 46.6484 57.9146 46.6604 57.9146 46.6604L57.8546 46.6901L57.8069 46.7258C57.767 46.7494 57.7231 46.7909 57.6751 46.8502C57.6274 46.9093 57.5875 46.9787 57.5557 47.0578C57.1802 48.0148 56.7533 48.9045 56.2742 49.727C55.9788 50.2174 55.7075 50.6425 55.4597 51.0024C55.2123 51.3621 55.0047 51.6272 54.8372 51.7971C54.6694 51.9671 54.518 52.1034 54.382 52.2063C54.2463 52.3093 54.1426 52.3528 54.0708 52.3369C53.9989 52.321 53.9312 52.3052 53.867 52.2894C53.7554 52.2182 53.6655 52.1213 53.5978 51.9987C53.5297 51.8761 53.4839 51.7219 53.46 51.536C53.4362 51.35 53.4221 51.19 53.418 51.0555C53.4143 50.9212 53.416 50.7312 53.4241 50.486C53.4324 50.2408 53.4362 50.0748 53.4362 49.9878C53.4362 49.6872 53.4421 49.361 53.4539 49.009C53.466 48.6571 53.4758 48.3782 53.484 48.1728C53.4921 47.9672 53.4959 47.7496 53.4959 47.5202C53.4959 47.2909 53.4818 47.111 53.4539 46.9804C53.4264 46.85 53.3842 46.7235 53.3285 46.6008C53.2725 46.4782 53.1906 46.3834 53.083 46.3161C52.9753 46.2488 52.8413 46.1955 52.6819 46.1558C52.2587 46.061 51.7199 46.0097 51.0651 46.0017C49.5803 45.9859 48.6262 46.0809 48.2031 46.2865C48.0354 46.3734 47.8837 46.4921 47.7481 46.6423C47.6043 46.8164 47.5843 46.9113 47.688 46.927C48.1671 46.9981 48.5063 47.1681 48.7059 47.437L48.7778 47.5795C48.8338 47.6823 48.8896 47.8643 48.9455 48.1252C49.0014 48.3862 49.0374 48.6748 49.0533 48.991C49.0931 49.5685 49.0931 50.0628 49.0533 50.474C49.0133 50.8853 48.9755 51.2056 48.9395 51.435C48.9035 51.6643 48.8496 51.8502 48.7778 51.9925C48.7059 52.1348 48.658 52.2219 48.634 52.2534C48.6101 52.285 48.5901 52.3049 48.5743 52.3127C48.4705 52.3521 48.3626 52.3722 48.2509 52.3722C48.139 52.3722 48.0034 52.3168 47.8437 52.206C47.6841 52.0952 47.5185 51.943 47.3468 51.7492C47.1752 51.5554 46.9815 51.2845 46.7659 50.9366C46.5505 50.5886 46.3269 50.1774 46.0954 49.7029L45.9038 49.3587C45.7841 49.1373 45.6205 48.815 45.4129 48.392C45.2052 47.9687 45.0216 47.5594 44.862 47.1639C44.7982 46.9978 44.7024 46.8714 44.5747 46.7844L44.5147 46.7487C44.4749 46.7171 44.4109 46.6836 44.3232 46.6479C44.2353 46.6122 44.1436 46.5866 44.0477 46.5708L40.7666 46.5944C40.4313 46.5944 40.2038 46.6697 40.084 46.82L40.036 46.8911C40.0121 46.9307 40 46.9939 40 47.081C40 47.168 40.0239 47.2747 40.0719 47.4012C40.5509 48.5164 41.0718 49.592 41.6346 50.6281C42.1974 51.6641 42.6864 52.4987 43.1015 53.131C43.5166 53.7638 43.9397 54.361 44.3708 54.9224C44.802 55.484 45.0873 55.8438 45.227 56.0019C45.3668 56.1603 45.4766 56.2788 45.5564 56.3578L45.8558 56.6425C46.0474 56.8324 46.3288 57.0597 46.7 57.3246C47.0713 57.5897 47.4824 57.8506 47.9335 58.1079C48.3846 58.3647 48.9095 58.5743 49.5083 58.7364C50.107 58.8986 50.6898 58.9638 51.2567 58.9323H52.6338C52.9131 58.9084 53.1247 58.8214 53.2686 58.6713L53.3162 58.6118C53.3482 58.5646 53.3782 58.4913 53.4059 58.3926C53.4339 58.2937 53.4479 58.1848 53.4479 58.0664C53.4397 57.7263 53.4658 57.4199 53.5255 57.1471C53.5852 56.8743 53.6533 56.6687 53.7293 56.5302C53.8054 56.3918 53.8912 56.2751 53.9867 56.1804C54.0824 56.0855 54.1506 56.0281 54.1906 56.0083C54.2304 55.9884 54.2622 55.9749 54.2861 55.9668C54.4777 55.9035 54.7032 55.9648 54.9629 56.1508C55.2224 56.3367 55.4658 56.5662 55.6935 56.8389C55.921 57.1119 56.1944 57.4182 56.5137 57.7582C56.8332 58.0984 57.1125 58.3512 57.3519 58.5175L57.5913 58.6599C57.7512 58.7549 57.9588 58.8419 58.2143 58.921C58.4694 59 58.6928 59.0198 58.8847 58.9802L61.9502 58.9329C62.2534 58.9329 62.4894 58.8831 62.6567 58.7845C62.8244 58.6856 62.924 58.5767 62.9562 58.4582C62.9882 58.3396 62.9899 58.2051 62.9622 58.0547C62.9338 57.9046 62.9059 57.7997 62.878 57.7404Z" fill="white"/>
<defs>
<filter id="filter0_f_501_56884" x="0" y="0" width="105" height="105" filterUnits="userSpaceOnUse" color-interpolation-filters="sRGB">
<feFlood flood-opacity="0" result="BackgroundImageFix"/>
<feBlend mode="normal" in="SourceGraphic" in2="BackgroundImageFix" result="shape"/>
<feGaussianBlur stdDeviation="12.5" result="effect1_foregroundBlur_501_56884"/>
</filter>
<linearGradient id="paint0_linear_501_56884" x1="37.5" y1="71.5" x2="66" y2="33.5" gradientUnits="userSpaceOnUse">
<stop stop-color="#B139FE"/>
<stop offset="1" stop-color="#1E61EB"/>
</linearGradient>
<linearGradient id="paint1_linear_501_56884" x1="37.5" y1="71.5" x2="66" y2="33.5" gradientUnits="userSpaceOnUse">
<stop stop-color="#B139FE"/>
<stop offset="1" stop-color="#1E61EB"/>
</linearGradient>
</defs>
</svg>
