<svg width="16" height="16" viewBox="0 0 16 16" fill="none" xmlns="http://www.w3.org/2000/svg">
<g clipPath="url(#clip0_1507_21688)">
<path d="M6.2272 12.5214L4.93987 12.1761L5.46454 10.2167C4.67918 9.92709 3.94928 9.50498 3.30654 8.96874L1.8712 10.4047L0.92787 9.46141L2.36387 8.02607C1.55325 7.05524 1.00859 5.89058 0.783203 4.64607L2.0952 4.40674C2.6012 7.20807 5.05187 9.33341 7.9992 9.33341C10.9459 9.33341 13.3972 7.20807 13.9032 4.40674L15.2152 4.6454C14.9901 5.89008 14.4457 7.05498 13.6352 8.02607L15.0705 9.46141L14.1272 10.4047L12.6919 8.96874C12.0491 9.50498 11.3192 9.92709 10.5339 10.2167L11.0585 12.1767L9.7712 12.5214L9.24587 10.5614C8.42077 10.7028 7.57764 10.7028 6.75254 10.5614L6.2272 12.5214Z" fill="#CFD2EA"/>
</g>
<defs>
<clipPath id="clip0_1507_21688">
<rect width="16" height="16" fill="white"/>
</clipPath>
</defs>
</svg>