<svg width="50" height="50" viewBox="0 0 50 50" fill="none" xmlns="http://www.w3.org/2000/svg">
<path fill-rule="evenodd" clip-rule="evenodd" d="M30.1525 26.8475L25.1525 31.8475L20.1525 26.8475L17.3125 24.0075C15.9318 22.6268 15.9318 20.3882 17.3125 19.0075C18.6932 17.6268 20.9318 17.6268 22.3125 19.0075L25.1525 21.8675L27.9925 19.0275C29.3732 17.6468 31.6118 17.6468 32.9925 19.0275C34.3732 20.4082 34.3732 22.6468 32.9925 24.0275L30.1525 26.8475ZM23.7525 17.6175C21.5958 15.4608 18.0992 15.4608 15.9425 17.6175C13.7858 19.7742 13.7858 23.2708 15.9425 25.4275L17.3625 26.8475L25.1525 34.6575L32.9625 26.8475L34.3825 25.4275C36.5392 23.2708 36.5392 19.7742 34.3825 17.6175C32.2258 15.4608 28.7292 15.4608 26.5725 17.6175L25.1525 19.0375L23.7525 17.6175Z" fill="white"/>
</svg>
