<svg xmlns="http://www.w3.org/2000/svg" width="22" height="20" viewBox="0 0 22 20" fill="none">
<path fill-rule="evenodd" clip-rule="evenodd" d="M21.2954 8.88263L1.88775 0.115735C1.66621 0.0165446 1.42026 -0.019988 1.1782 0.0103992C0.936147 0.0407864 0.707896 0.136965 0.519832 0.287575C0.331769 0.438186 0.191524 0.637181 0.115349 0.861649C0.0391743 1.08612 0.0302038 1.32682 0.0893681 1.55604L1.38321 6.5657C1.46728 6.88789 1.68012 7.16457 1.97493 7.33485C2.26974 7.50513 2.62233 7.55505 2.95518 7.47367C3.28803 7.39229 3.57386 7.18634 3.74977 6.90097C3.92569 6.6156 3.97725 6.27422 3.89318 5.95203L3.25921 3.4472L17.6985 9.97223L3.37569 16.4473L4.91537 11.2246H9.1074C9.45055 11.2246 9.77962 11.0927 10.0223 10.8579C10.2649 10.623 10.4012 10.3044 10.4012 9.97223C10.4012 9.64007 10.2649 9.3216 10.0223 9.08673C9.77962 8.85186 9.45055 8.71981 9.1074 8.71981H3.93204C3.64164 8.70942 3.35604 8.79398 3.12133 8.95984C2.88662 9.12569 2.71646 9.36315 2.6382 9.63405L0.050515 18.4009C-0.01842 18.6327 -0.0167635 18.8789 0.0552532 19.1097C0.12727 19.3406 0.266586 19.5462 0.456499 19.7023C0.646411 19.8583 0.878839 19.9581 1.12585 19.9894C1.37285 20.0207 1.62395 19.9823 1.84897 19.8789L21.2566 11.112C21.4789 11.0108 21.6668 10.8505 21.7985 10.6498C21.9301 10.4491 22 10.2162 22 9.97849C22 9.74075 21.9301 9.5079 21.7985 9.30719C21.6668 9.10648 21.4789 8.94632 21.2566 8.84518L21.2954 8.88263Z" fill="url(#paint0_linear_94_50409)"/>
<defs>
<linearGradient id="paint0_linear_94_50409" x1="-8.19564e-08" y1="10" x2="22" y2="10" gradientUnits="userSpaceOnUse">
<stop stop-color="#8CD23C"/>
<stop offset="1" stop-color="#417A00"/>
</linearGradient>
</defs>
</svg>
