<svg xmlns="http://www.w3.org/2000/svg" width="16" height="13" viewBox="0 0 16 13" fill="none">
<path fill-rule="evenodd" clip-rule="evenodd" d="M12.989 2.89044C13.2737 2.88234 13.5446 3.01157 13.7163 3.23729L15.8254 6.03379C15.9406 6.18286 16.0021 6.3661 15.9999 6.55407V10.6946C15.9999 11.1735 15.6092 11.5617 15.1272 11.5617H13.0909C13.0497 11.5652 13.0084 11.5652 12.9672 11.5617C12.657 12.4243 11.8346 13 10.9127 13C9.99081 13 9.16841 12.4243 8.85815 11.5617H6.41452C6.10134 12.4191 5.28157 12.99 4.36362 12.99C3.44567 12.99 2.6259 12.4191 2.31272 11.5617H2.18181C0.97683 11.5617 0 10.5912 0 9.39392V2.16783C0 0.97057 0.97683 0 2.18181 0H9.45451C10.6595 0 11.6363 0.97057 11.6363 2.16783V2.89044H12.989ZM3.63623 10.8391C3.63623 11.2382 3.96184 11.5618 4.3635 11.5618C4.76516 11.5618 5.09077 11.2382 5.09077 10.8391C5.09077 10.4401 4.76516 10.1165 4.3635 10.1165C3.96184 10.1165 3.63623 10.4401 3.63623 10.8391ZM10.9092 11.5618C10.5075 11.5618 10.1819 11.2382 10.1819 10.8391C10.1819 10.4401 10.5075 10.1165 10.9092 10.1165C11.3108 10.1165 11.6364 10.4401 11.6364 10.8391C11.6364 11.2382 11.3108 11.5618 10.9092 11.5618ZM13.0909 10.1165H14.5455V6.74195L12.7273 4.33566H11.6364V7.2261C11.6364 7.62518 11.3108 7.94871 10.9091 7.94871C10.5074 7.94871 10.1818 7.62518 10.1818 7.2261V2.16783C10.1818 1.76875 9.85622 1.44522 9.45456 1.44522H2.18186C1.7802 1.44522 1.45459 1.76875 1.45459 2.16783V9.39392C1.45459 9.79301 1.7802 10.1165 2.18186 10.1165H2.31277C2.62595 9.25919 3.44572 8.68831 4.36367 8.68831C5.28162 8.68831 6.10139 9.25919 6.41457 10.1165H8.8582C9.16846 9.25399 9.99086 8.67828 10.9127 8.67828C11.8346 8.67828 12.657 9.25399 12.9673 10.1165C13.0084 10.113 13.0498 10.113 13.0909 10.1165Z" fill="#CDD6E6" class="_to-gradient"/>
<defs>
<linearGradient id="icon_primary_gradient" x1="3.18182" y1="16.0636" x2="13.4359" y2="5.98946" gradientUnits="userSpaceOnUse">
<stop stop-color="#339CFC"/>
<stop offset="1" stop-color="#1E61EB"/>
</linearGradient>
</defs>
</svg>
