<svg xmlns="http://www.w3.org/2000/svg" width="26" height="20" viewBox="0 0 26 20" fill="none">
<path opacity="0.45" fill-rule="evenodd" clip-rule="evenodd" d="M24.7514 3.62722L20.5503 3.53974L18.4953 0.562867C18.3774 0.390809 18.2172 0.249349 18.0289 0.151157C17.8406 0.0529645 17.6299 0.00106581 17.4157 0H8.6363C8.42208 0.00106581 8.21146 0.0529645 8.02313 0.151157C7.8348 0.249349 7.6746 0.390809 7.55678 0.562867L5.50177 3.53974L1.30065 3.62722C0.955697 3.62722 0.62485 3.75902 0.380931 3.99359C0.137012 4.22815 0 4.54628 0 4.87801V18.7492C0 19.0809 0.137012 19.3991 0.380931 19.6336C0.62485 19.8682 0.955697 20 1.30065 20H13.0065C13.3515 20 13.6823 19.8682 13.9262 19.6336C14.1701 19.3991 14.3072 19.0809 14.3072 18.7492V16.085C15.5332 15.7806 16.6018 15.0566 17.3125 14.0488C18.0231 13.0409 18.3272 11.8184 18.1676 10.6104C18.0081 9.40233 17.3959 8.29174 16.4457 7.48675C15.4956 6.68177 14.2728 6.23765 13.0065 6.23765C11.7402 6.23765 10.5174 6.68177 9.56729 7.48675C8.61716 8.29174 8.00494 9.40233 7.84538 10.6104C7.68583 11.8184 7.98987 13.0409 8.70056 14.0488C9.41126 15.0566 10.4798 15.7806 11.7059 16.085V17.4984H2.6013V6.07878L6.20409 6.00374C6.41389 5.99862 6.61928 5.94479 6.80274 5.84678C6.98619 5.74877 7.14226 5.60947 7.25762 5.44087L9.31267 2.48904H16.7004L18.7424 5.44087C18.8577 5.60947 19.0138 5.74877 19.1973 5.84678C19.3807 5.94479 19.5861 5.99862 19.7959 6.00374L23.3987 6.07878V17.4984H18.1961C17.8511 17.4984 17.5203 17.6302 17.2764 17.8648C17.0325 18.0994 16.8954 18.4175 16.8954 18.7492C16.8954 19.0809 17.0325 19.3991 17.2764 19.6336C17.5203 19.8682 17.8511 20 18.1961 20H24.6993C25.0443 20 25.3751 19.8682 25.6191 19.6336C25.863 19.3991 26 19.0809 26 18.7492V4.86556C25.9969 4.54449 25.8656 4.23684 25.6332 4.00634C25.4007 3.77583 25.085 3.64005 24.7514 3.62722ZM10.4442 11.2445C10.4442 10.7498 10.5968 10.2661 10.8826 9.85472C11.1685 9.44334 11.5747 9.12269 12.05 8.93335C12.5254 8.74402 13.0484 8.69453 13.553 8.79105C14.0576 8.88758 14.5211 9.12583 14.8849 9.47569C15.2487 9.82553 15.4965 10.2712 15.5969 10.7565C15.6972 11.2417 15.6457 11.7447 15.4488 12.2018C15.2519 12.6589 14.9185 13.0497 14.4907 13.3245C14.063 13.5994 13.56 13.7461 13.0455 13.7461C12.3556 13.7461 11.694 13.4825 11.2061 13.0134C10.7183 12.5442 10.4442 11.908 10.4442 11.2445Z" fill="#AFB8CC"/>
</svg>
