<svg xmlns="http://www.w3.org/2000/svg" width="16" height="15" viewBox="0 0 16 15" fill="none">
<path fill-rule="evenodd" clip-rule="evenodd" d="M8.81449 7.15236H8.70567C8.70567 7.13139 8.69116 7.08945 8.69116 7.08945V6.05484C8.69116 5.98494 8.72018 5.98494 8.75645 5.98494C8.9717 5.91019 9.18242 5.82384 9.3876 5.72629C10.4614 5.15071 11.0426 3.98582 10.8385 2.81822C10.6134 1.58131 9.56016 0.64073 8.26314 0.518331C7.33684 0.41438 6.41688 0.756942 5.80383 1.43409C5.20517 2.05016 4.94894 2.90524 5.11464 3.73398C5.25533 4.83342 6.07739 5.73911 7.18946 6.01989C7.23178 6.03013 7.2597 6.06899 7.25475 6.11077V7.08246V7.15935H5.12189C4.9661 7.15913 4.81063 7.17317 4.6576 7.20129C3.70661 7.37776 2.99104 8.13851 2.90198 9.06777V9.60604H2.80767H1.93712C0.861975 9.72009 0.0369038 10.5777 0.000133194 11.6193V12.4023C-0.00412177 12.7654 0.0936406 13.1229 0.283063 13.4369C0.67848 14.1092 1.42555 14.5175 2.2273 14.4994H5.07836C5.2322 14.4863 5.38491 14.4629 5.5354 14.4295C6.43695 14.2484 7.1226 13.5401 7.24749 12.6609C7.26562 12.3582 7.26562 12.0548 7.24749 11.7521C7.25013 11.5976 7.23799 11.4432 7.21122 11.2908C7.02924 10.3885 6.25876 9.70558 5.31051 9.60604H4.44721H4.3529V9.20758C4.37962 8.84074 4.69672 8.55656 5.07836 8.55746H10.8966C11.1275 8.56073 11.343 8.66976 11.4769 8.85106C11.6041 9.08246 11.65 9.3474 11.6075 9.60604H11.4987H10.6427C9.70185 9.68248 8.91949 10.3347 8.70567 11.2209C8.62586 11.6978 8.62586 12.184 8.70567 12.6609C8.84187 13.7171 9.77754 14.5075 10.8821 14.4994H13.7839C14.7852 14.5067 15.6625 13.8547 15.9095 12.9196C16.0097 12.4268 16.0268 11.9216 15.9603 11.4236C15.8441 10.5922 15.2248 9.90753 14.386 9.68294C14.1882 9.63929 13.9867 9.61355 13.7839 9.60604H13.0584V9.46623C13.0695 9.27997 13.0695 9.09325 13.0584 8.90699C12.8874 7.91012 12.003 7.1725 10.9546 7.15236H8.81449ZM5.07828 13.1013H3.62736H2.22722C2.01566 13.1163 1.80789 13.0414 1.65859 12.8961C1.50929 12.7509 1.43343 12.55 1.45097 12.3463V11.7032C1.45097 11.3171 1.77577 11.0041 2.17644 11.0041H5.07828C5.47894 11.0041 5.80374 11.3171 5.80374 11.7032V12.4023C5.80374 12.7883 5.47894 13.1013 5.07828 13.1013ZM12.3328 13.1013H13.8273C14.2109 13.0791 14.5099 12.7725 14.5092 12.4023V11.7032C14.5092 11.3171 14.1844 11.0042 13.7838 11.0042H10.8819C10.5272 10.9986 10.2203 11.2411 10.1565 11.5774C10.1493 11.6751 10.1493 11.7732 10.1565 11.871V12.3673C10.1465 12.5587 10.2185 12.7456 10.3557 12.8844C10.4928 13.0231 10.6831 13.1016 10.8819 13.1013H12.3328ZM7.97998 1.91643C8.7813 1.91643 9.4309 2.54239 9.4309 3.31454C9.4309 4.0867 8.7813 4.71265 7.97998 4.71265C7.17865 4.71265 6.52905 4.0867 6.52905 3.31454C6.52905 2.54239 7.17865 1.91643 7.97998 1.91643Z" class="_to-gradient"/>
<defs>
<linearGradient id="icon_primary_gradient" x1="3.18182" y1="16.0636" x2="13.4359" y2="5.98946" gradientUnits="userSpaceOnUse">
<stop stop-color="#339CFC"/>
<stop offset="1" stop-color="#1E61EB"/>
</linearGradient>
</defs>
</svg>
