<svg xmlns="http://www.w3.org/2000/svg" width="16" height="17" viewBox="0 0 16 17" fill="none">
<path fill-rule="evenodd" clip-rule="evenodd" d="M13.6 0H2.296C1.02978 0.0042394 0.00438903 0.994671 0 2.21773V14.6818C0 15.9621 1.07452 17 2.4 17H13.6C14.9255 17 16 15.9621 16 14.6818V2.31818C16 1.03789 14.9255 0 13.6 0ZM12.7199 1.54546C13.5004 1.50959 14.2007 2.00562 14.3999 2.73546C14.5531 3.27168 14.3961 3.84607 13.9889 4.23941C13.5817 4.63275 12.987 4.78436 12.4319 4.63637C11.6763 4.44397 11.1627 3.76757 11.1999 3.01364V1.54546H12.7199ZM9.60004 1.54546V3.09091C9.60226 3.59138 9.35344 4.06191 8.93235 4.35353C8.51127 4.64515 7.97005 4.72176 7.48004 4.5591C6.80262 4.33535 6.36153 3.70417 6.40004 3.01364V1.54546H9.60004ZM4.79995 1.54546V3.09091C4.80217 3.59138 4.55335 4.06191 4.13226 4.35353C3.71117 4.64515 3.16996 4.72176 2.67995 4.5591C2.00845 4.33694 1.56875 3.71403 1.59995 3.0291V2.31819C1.59995 1.89142 1.95812 1.54546 2.39995 1.54546H4.79995ZM5.6001 15.4545V11.5909C5.59945 10.8999 5.91794 10.2447 6.46877 9.80382C7.01959 9.36294 7.74531 9.18238 8.4481 9.31136C9.61048 9.55255 10.4305 10.5588 10.4001 11.7068V15.4545H5.6001ZM13.6001 15.4545H12.0001V11.5909C12.0003 10.4306 11.4607 9.33157 10.5302 8.59761C9.5998 7.86366 8.37712 7.57248 7.2001 7.80455C5.30355 8.21795 3.96757 9.86003 4.0001 11.7377V15.4545H2.4001C1.95827 15.4545 1.6001 15.1086 1.6001 14.6818V5.76455C2.5154 6.2662 3.62304 6.31783 4.5841 5.90364C4.988 5.72727 5.34401 5.46275 5.6241 5.13091C6.38601 5.95434 7.54488 6.32255 8.6641 6.09682C9.34408 5.96213 9.95634 5.60784 10.4001 5.09228C10.8557 5.63462 11.4969 6.00185 12.2081 6.12773C12.9602 6.2637 13.7379 6.13486 14.4001 5.76455V14.6818C14.4001 15.1086 14.0419 15.4545 13.6001 15.4545Z" fill="#CDD6E6" class="_to-gradient"/>
<defs>
<linearGradient id="icon_primary_gradient" x1="3.18182" y1="16.0636" x2="13.4359" y2="5.98946" gradientUnits="userSpaceOnUse">
<stop stop-color="#339CFC"/>
<stop offset="1" stop-color="#1E61EB"/>
</linearGradient>
</defs>
</svg>
