<svg xmlns="http://www.w3.org/2000/svg" width="14" height="13" viewBox="0 0 14 13" fill="none">
<path fill-rule="evenodd" clip-rule="evenodd" d="M3.88308 11.5556H1.55323V1.44444H3.88308C4.08905 1.44444 4.28657 1.36834 4.43222 1.2329C4.57786 1.09746 4.65969 0.913767 4.65969 0.722222C4.65969 0.530677 4.57786 0.346987 4.43222 0.211544C4.28657 0.0761015 4.08905 0 3.88308 0H0.776616C0.570644 0 0.37312 0.0761015 0.227477 0.211544C0.081833 0.346987 0 0.530677 0 0.722222V12.2778C0 12.4693 0.081833 12.6531 0.227477 12.7885C0.37312 12.9239 0.570644 13 0.776616 13H3.88308C4.08905 13 4.28657 12.9239 4.43222 12.7885C4.57786 12.6531 4.65969 12.4693 4.65969 12.2778C4.65969 12.0862 4.57786 11.9025 4.43222 11.7671C4.28657 11.6316 4.08905 11.5556 3.88308 11.5556ZM13.7539 5.98721L9.09416 1.65387C8.94586 1.52075 8.74677 1.44789 8.54069 1.45128C8.3346 1.45466 8.13842 1.53403 7.99527 1.67195C7.85212 1.80986 7.77373 1.99498 7.77737 2.18664C7.78101 2.37829 7.86638 2.56075 8.01468 2.69387L11.3463 5.79224H3.88308C3.67711 5.79224 3.47958 5.86829 3.33394 6.00374C3.1883 6.13918 3.10646 6.32291 3.10646 6.51446C3.10646 6.706 3.1883 6.88965 3.33394 7.02509C3.47958 7.16053 3.67711 7.23668 3.88308 7.23668H13.2025C13.36 7.24063 13.5151 7.19993 13.6472 7.11995C13.7792 7.03998 13.882 6.92449 13.9419 6.78891C14.0017 6.65332 14.0157 6.50403 13.9822 6.36084C13.9486 6.21764 13.869 6.08732 13.7539 5.98721ZM10.3756 8.47165L8.04573 10.2772C7.89022 10.4036 7.79509 10.5823 7.78126 10.774C7.76742 10.9657 7.83603 11.1546 7.97197 11.2992C8.10791 11.4438 8.30005 11.5323 8.50613 11.5452C8.71222 11.558 8.91536 11.4942 9.07087 11.3678L11.4007 9.56221C11.5562 9.43579 11.6514 9.25707 11.6652 9.06542C11.679 8.87377 11.6104 8.68486 11.4745 8.54024C11.3386 8.39563 11.1464 8.30723 10.9403 8.29436C10.7342 8.28149 10.5311 8.34523 10.3756 8.47165Z" class="_to-gradient"/>
<defs>
<linearGradient id="icon_primary_gradient" x1="3.18182" y1="16.0636" x2="13.4359" y2="5.98946" gradientUnits="userSpaceOnUse">
<stop stop-color="#339CFC"/>
<stop offset="1" stop-color="#1E61EB"/>
</linearGradient>
</defs>
</svg>
