<svg width="90" height="85" viewBox="0 0 90 85" fill="none" xmlns="http://www.w3.org/2000/svg">
<g opacity="0.65" filter="url(#filter0_f_160_2420)">
<circle cx="45" cy="45" r="25" fill="url(#paint0_linear_160_2420)"/>
</g>
<circle cx="45" cy="40" r="25" fill="url(#paint1_linear_160_2420)"/>
<path fill-rule="evenodd" clip-rule="evenodd" d="M41.6531 39.4286V42H45.9934C45.8185 43.1036 44.6815 45.2357 41.6531 45.2357C39.0401 45.2357 36.9082 43.1143 36.9082 40.5C36.9082 37.8857 39.0401 35.7643 41.6531 35.7643C43.1399 35.7643 44.1348 36.3857 44.7034 36.9214L46.7806 34.9607C45.4468 33.7393 43.7194 33 41.6531 33C37.422 33 34 36.3536 34 40.5C34 44.6464 37.422 48 41.6531 48C46.07 48 49 44.9571 49 40.6714C49 40.1786 48.9453 39.8036 48.8797 39.4286H41.6531Z" fill="white"/>
<path fill-rule="evenodd" clip-rule="evenodd" d="M58 39.3333H55.6667V37H53.3333V39.3333H51V41.6667H53.3333V44H55.6667V41.6667H58" fill="white"/>
<defs>
<filter id="filter0_f_160_2420" x="0" y="0" width="90" height="90" filterUnits="userSpaceOnUse" color-interpolation-filters="sRGB">
<feFlood flood-opacity="0" result="BackgroundImageFix"/>
<feBlend mode="normal" in="SourceGraphic" in2="BackgroundImageFix" result="shape"/>
<feGaussianBlur stdDeviation="10" result="effect1_foregroundBlur_160_2420"/>
</filter>
<linearGradient id="paint0_linear_160_2420" x1="63" y1="27" x2="30.5" y2="62.5" gradientUnits="userSpaceOnUse">
<stop stop-color="#FF8A80"/>
<stop offset="0.971386" stop-color="#DC4E41"/>
</linearGradient>
<linearGradient id="paint1_linear_160_2420" x1="63" y1="22" x2="30.5" y2="57.5" gradientUnits="userSpaceOnUse">
<stop stop-color="#FF8176"/>
<stop offset="0.971386" stop-color="#FF5343"/>
</linearGradient>
</defs>
</svg>
