<svg width="14" height="13" viewBox="0 0 14 13" fill="none" xmlns="http://www.w3.org/2000/svg">
<path fill-rule="evenodd" clip-rule="evenodd" d="M12.0909 2.15375H11.4545V1.80426C11.4534 1.23808 11.1722 0.705122 10.6947 0.364283C10.2173 0.0234431 9.59879 -0.0859001 9.02364 0.0688552L1.73727 2.03926C1.62982 2.07106 1.5332 2.12928 1.45727 2.20798C0.603057 2.405 0.00139898 3.12895 0 3.96146V11.1923C0 12.1907 0.854729 13 1.90909 13H12.0909C13.1453 13 14 12.1907 14 11.1923V3.96146C14 2.96309 13.1453 2.15375 12.0909 2.15375ZM9.37357 1.22578C9.56938 1.17365 9.77971 1.21328 9.93951 1.33243C10.0993 1.45158 10.1893 1.63589 10.1818 1.82835V2.17784H5.9563L9.37357 1.22578ZM12.7271 8.17945H10.818C10.4665 8.17945 10.1816 7.90967 10.1816 7.57688C10.1816 7.24409 10.4665 6.97431 10.818 6.97431H12.7271V8.17945ZM12.7273 5.76917H10.9136C9.96821 5.74629 9.13951 6.36392 8.94089 7.23944C8.83467 7.76878 8.98336 8.31541 9.34644 8.73029C9.70952 9.14518 10.2491 9.38507 10.8182 9.38458H12.7273V11.1923C12.7273 11.5251 12.4423 11.7949 12.0909 11.7949H1.90907C1.55761 11.7949 1.27271 11.5251 1.27271 11.1923V3.96146C1.27271 3.62867 1.55761 3.35889 1.90907 3.35889H12.0909C12.4423 3.35889 12.7273 3.62867 12.7273 3.96146V5.76917Z" fill="#CDD6E6"/>
</svg>

