<svg xmlns="http://www.w3.org/2000/svg" width="17" height="8" viewBox="0 0 17 8" fill="none">
<path fill-rule="evenodd" clip-rule="evenodd" d="M13.0616 0.284467C13.1937 0.440295 13.259 0.642692 13.2432 0.847126C13.2274 1.05156 13.1318 1.24129 12.9774 1.37456L5.63181 7.73729C5.25296 8.06325 4.68587 8.02555 4.35265 7.65225L1.14327 4.08819C0.958555 3.8838 0.895905 3.59546 0.97892 3.33181C1.06193 3.06815 1.278 2.86922 1.54573 2.80995C1.81346 2.75069 2.09218 2.84009 2.27689 3.04449L5.08797 6.13694L11.9816 0.176231C12.1389 0.0456458 12.3412 -0.0163417 12.5439 0.00396851C12.7466 0.0242787 12.9329 0.125214 13.0616 0.284467Z" fill="#E7E7E7"/>
<path fill-rule="evenodd" clip-rule="evenodd" d="M16.7598 0.284467C16.8919 0.440295 16.9572 0.642692 16.9414 0.847126C16.9256 1.05156 16.8299 1.24129 16.6755 1.37456L9.32996 7.73729C8.95111 8.06325 8.07399 8.1106 7.74078 7.7373L6.40994 6.16377C6.22523 5.95938 6.32694 5.65431 6.40995 5.39065C6.49297 5.127 6.52521 5.06336 6.79294 5.0041C7.06067 4.94483 7.37418 4.7997 7.5589 5.0041L8.78613 6.13694L15.6798 0.176231C15.8371 0.0456458 16.0394 -0.0163417 16.2421 0.00396851C16.4447 0.0242787 16.631 0.125214 16.7598 0.284467Z" fill="#E7E7E7"/>
</svg>
