<svg width="17" height="18" viewBox="0 0 17 18" fill="none" xmlns="http://www.w3.org/2000/svg">
<path fill-rule="evenodd" clip-rule="evenodd" d="M15.9408 15.6692C15.9224 14.2496 15.095 12.9652 13.81 12.3615V8.33844C13.8552 5.57017 11.8412 3.19736 9.10231 2.79228C7.5611 2.59693 6.01061 3.07676 4.84915 4.10852C3.68768 5.14028 3.02844 6.6234 3.04078 8.1769V12.2307C1.54573 12.7335 0.535136 14.1304 0.525391 15.7077C0.53112 15.9575 0.638707 16.1941 0.823193 16.3626C1.00768 16.5311 1.25303 16.6168 1.50231 16.6H15.0254C15.2702 16.5979 15.5042 16.4987 15.6759 16.3242C15.8475 16.1496 15.9428 15.914 15.9408 15.6692ZM7.65622 4.36922C8.78797 4.1382 9.96362 4.42806 10.8583 5.15869C11.7529 5.88933 12.2718 6.98336 12.2716 8.13845V11.9846H4.5793V8.29999C4.53762 6.42405 5.82517 4.77922 7.65622 4.36922ZM2.18724 15.0615C2.45993 14.1469 3.30204 13.5208 4.25647 13.5231H12.2719C13.2254 13.5233 14.0662 14.1484 14.3411 15.0615H2.18724Z" fill="white"/>
<path fill-rule="evenodd" clip-rule="evenodd" d="M9.19471 1.53846V0.769231C9.19471 0.344396 8.85032 0 8.42548 0C8.00065 0 7.65625 0.344396 7.65625 0.769231V1.53846C7.65625 1.9633 8.00065 2.30769 8.42548 2.30769C8.85032 2.30769 9.19471 1.9633 9.19471 1.53846Z" fill="white"/>
<path fill-rule="evenodd" clip-rule="evenodd" d="M9.19471 16.9231V16.1539C9.19471 15.729 8.85032 15.3846 8.42548 15.3846C8.00065 15.3846 7.65625 15.729 7.65625 16.1539V16.9231C7.65625 17.3479 8.00065 17.6923 8.42548 17.6923C8.85032 17.6923 9.19471 17.3479 9.19471 16.9231Z" fill="white"/>
<path fill-rule="evenodd" clip-rule="evenodd" d="M2.41047 2.91537C2.5549 3.061 2.75151 3.14291 2.95662 3.14291C3.16173 3.14291 3.35834 3.061 3.50277 2.91537C3.80102 2.61535 3.80102 2.13079 3.50277 1.83076L2.95662 1.28461C2.81218 1.13898 2.61557 1.05707 2.41047 1.05707C2.20536 1.05707 2.00875 1.13898 1.86431 1.28461C1.56606 1.58463 1.56606 2.06919 1.86431 2.36922L2.41047 2.91537Z" fill="white"/>
<path fill-rule="evenodd" clip-rule="evenodd" d="M0.564318 6.3L1.33355 6.5C1.73731 6.59407 2.14298 6.35125 2.25083 5.95095C2.35869 5.55065 2.12991 5.1369 1.73355 5.01539L0.964318 4.81539C0.554469 4.7079 0.134873 4.9521 0.0258566 5.36154C-0.0821554 5.76906 0.157986 6.18759 0.564318 6.3Z" fill="white"/>
<path fill-rule="evenodd" clip-rule="evenodd" d="M15.5416 6.55383L16.3108 6.35383C16.7072 6.23232 16.936 5.81856 16.8281 5.41827C16.7203 5.01797 16.3146 4.77515 15.9108 4.86922L15.1416 5.06922C14.7452 5.19073 14.5165 5.60449 14.6243 6.00478C14.7322 6.40508 15.1378 6.6479 15.5416 6.55383Z" fill="white"/>
<path fill-rule="evenodd" clip-rule="evenodd" d="M13.7262 2.91537L14.2723 2.36922C14.5706 2.06919 14.5706 1.58463 14.2723 1.28461C14.1279 1.13898 13.9313 1.05707 13.7262 1.05707C13.521 1.05707 13.3244 1.13898 13.18 1.28461L12.6338 1.83076C12.3356 2.13079 12.3356 2.61535 12.6338 2.91537C12.7783 3.061 12.9749 3.14291 13.18 3.14291C13.3851 3.14291 13.5817 3.061 13.7262 2.91537Z" fill="white"/>
</svg>
