 <svg className='mb-2' width="23" height="21" viewBox="0 0 23 21" fill="none" xmlns="http://www.w3.org/2000/svg">
<path fillRule="evenodd" clipRule="evenodd" d="M19.5 5.72727H7.5V2.86364C7.5 1.28209 6.15685 0 4.5 0H1.5C0.947715 0 0.5 0.427365 0.5 0.954545C0.5 1.48173 0.947715 1.90909 1.5 1.90909H4.5C5.05228 1.90909 5.5 2.33646 5.5 2.86364V5.72727H3.5C1.84315 5.72727 0.5 7.00937 0.5 8.59091V18.1364C0.5 19.7179 1.84315 21 3.5 21H19.5C21.1569 21 22.5 19.7179 22.5 18.1364V8.59091C22.5 7.00937 21.1569 5.72727 19.5 5.72727ZM20.5 18.1364C20.5 18.6636 20.0523 19.091 19.5 19.091H3.5C2.94772 19.091 2.5 18.6636 2.5 18.1364V8.59095C2.5 8.06377 2.94772 7.63641 3.5 7.63641H19.5C20.0523 7.63641 20.5 8.06377 20.5 8.59095V18.1364Z" fill="white"/>
<path fillRule="evenodd" clipRule="evenodd" d="M11.4436 9C10.2734 9.01026 9.28114 9.86309 9.09516 11.0185C8.90918 12.1739 9.58369 13.295 10.6916 13.672C10.6871 13.7145 10.6871 13.7575 10.6916 13.8V17.2004C10.6916 17.6422 11.0498 18 11.4916 18C11.9334 18 12.2916 17.6422 12.2916 17.2004V13.8C12.2962 13.7494 12.2962 13.6986 12.2916 13.648C13.3722 13.2445 14.0128 12.1293 13.8172 10.9926C13.6215 9.85584 12.6449 9.01906 11.4916 9H11.4436ZM11.4437 10.6C11.8855 10.6 12.2437 10.9582 12.2437 11.4C12.2437 11.8418 11.8855 12.2 11.4437 12.2C11.0018 12.2 10.6437 11.8418 10.6437 11.4C10.6437 10.9582 11.0018 10.6 11.4437 10.6Z" fill="white"/>
</svg>