<svg width="82" height="90" viewBox="0 0 82 90" fill="none" xmlns="http://www.w3.org/2000/svg">
<circle opacity="0.25" cx="33.5" cy="41.5" r="32.5" stroke="white" stroke-width="2"/>
<g opacity="0.45" filter="url(#filter0_f_388_15781)">
<path d="M31.9384 73.4457C31.8975 74.2821 32.5426 74.9968 33.3799 74.9998C39.9585 75.0235 46.4112 73.1089 51.9242 69.4786C57.86 65.5697 62.3989 59.8744 64.8845 53.2159C67.3701 46.5575 67.6737 39.281 65.7512 32.4387C63.9658 26.0838 60.3461 20.4092 55.3613 16.1163C54.7268 15.5698 53.7712 15.687 53.254 16.3455C52.7368 17.0041 52.8543 17.9544 53.4863 18.5037C57.9664 22.3972 61.2206 27.5234 62.832 33.2589C64.5804 39.4819 64.3044 46.0997 62.0437 52.1554C59.7831 58.2112 55.6551 63.3911 50.2565 66.9461C45.2809 70.2226 39.4636 71.9624 33.528 71.9677C32.6907 71.9685 31.9792 72.6094 31.9384 73.4457Z" fill="url(#paint0_linear_388_15781)"/>
</g>
<path d="M31.9384 73.4457C31.8975 74.2821 32.5426 74.9968 33.3799 74.9998C40.5969 75.0258 47.645 72.7193 53.4624 68.4026C59.6865 63.7842 64.1166 57.1506 65.998 49.632C67.8794 42.1134 67.0956 34.1751 63.7802 27.1696C60.4648 20.1641 54.8229 14.5249 47.8158 11.2129C40.8087 7.90087 32.87 7.12091 25.3523 9.00592C17.8346 10.8909 11.2031 15.3243 6.58772 21.5506C1.97232 27.7769 -0.341415 35.4109 0.0407506 43.1519C0.397948 50.3871 3.08962 57.2973 7.69083 62.8574C8.22467 63.5025 9.18642 63.5473 9.80671 62.9848C10.427 62.4223 10.4706 61.4657 9.93966 60.8182C5.80819 55.7797 3.39193 49.5368 3.06933 43.0023C2.72175 35.962 4.82606 29.019 9.0237 23.3563C13.2213 17.6936 19.2526 13.6615 26.0898 11.9471C32.927 10.2327 40.1471 10.9421 46.52 13.9543C52.8928 16.9666 58.024 22.0953 61.0394 28.4667C64.0547 34.8381 64.7675 42.0579 63.0564 48.8959C61.3454 55.7339 57.3162 61.7671 51.6555 65.9675C46.4016 69.8661 40.0438 71.9619 33.5281 71.9677C32.6907 71.9685 31.9792 72.6094 31.9384 73.4457Z" fill="url(#paint1_linear_388_15781)"/>
<defs>
<filter id="filter0_f_388_15781" x="16.9355" y="0.769775" width="65.0645" height="89.2302" filterUnits="userSpaceOnUse" color-interpolation-filters="sRGB">
<feFlood flood-opacity="0" result="BackgroundImageFix"/>
<feBlend mode="normal" in="SourceGraphic" in2="BackgroundImageFix" result="shape"/>
<feGaussianBlur stdDeviation="7.5" result="effect1_foregroundBlur_388_15781"/>
</filter>
<linearGradient id="paint0_linear_388_15781" x1="15.2273" y1="64.6455" x2="49.9455" y2="18.3545" gradientUnits="userSpaceOnUse">
<stop stop-color="#B139FE"/>
<stop offset="1" stop-color="#1E61EB"/>
</linearGradient>
<linearGradient id="paint1_linear_388_15781" x1="15.2273" y1="64.6455" x2="49.9455" y2="18.3545" gradientUnits="userSpaceOnUse">
<stop stop-color="#B139FE"/>
<stop offset="1" stop-color="#1E61EB"/>
</linearGradient>
</defs>
</svg>


