<svg width="20" height="17" viewBox="0 0 20 17" fill="none" xmlns="http://www.w3.org/2000/svg">
<path fill-rule="evenodd" clip-rule="evenodd" d="M15.8477 16.4288C17.1348 16.4288 18.1781 15.384 18.1781 14.0951C18.1781 12.8063 17.1348 11.7615 15.8477 11.7615C14.5607 11.7615 13.5174 12.8063 13.5174 14.0951C13.5174 15.384 14.5607 16.4288 15.8477 16.4288ZM15.8491 14.5618C15.5938 14.5568 15.388 14.3507 15.3831 14.095C15.3831 13.8373 15.5917 13.6283 15.8491 13.6283C16.1065 13.6283 16.3152 13.8373 16.3152 14.095C16.3152 14.3528 16.1065 14.5618 15.8491 14.5618Z" fill="url(#paint0_linear_473_33918)"/>
<path d="M18.1767 9.33465C18.6916 9.33465 19.1089 9.75258 19.1089 10.2681C19.1089 10.7837 18.6916 11.2016 18.1767 11.2016H9.59173L8.36131 15.7382C8.22489 16.2357 7.71157 16.5283 7.21478 16.3917C6.71799 16.255 6.42586 15.741 6.56228 15.2435L7.6622 11.2016H6.20807C5.6948 11.2031 5.24755 10.8517 5.12678 10.3521L3.0015 1.86693H0.932152C0.417345 1.86693 1.14441e-05 1.449 1.14441e-05 0.933465C1.14441e-05 0.417927 0.417345 0 0.932152 0H3.58875C4.10086 0.00189461 4.54628 0.351815 4.67003 0.849454L6.78599 9.33465H18.1767Z" fill="url(#paint1_linear_473_33918)"/>
<path fill-rule="evenodd" clip-rule="evenodd" d="M17.5612 8.40119C18.0914 8.40399 18.5507 8.03368 18.6611 7.5144L19.9754 1.35352C20.0456 1.02349 19.9635 0.679347 19.7519 0.416736C19.5403 0.154125 19.2218 0.00103152 18.8848 0H7.20512C6.87144 0.00657848 6.55813 0.162023 6.35074 0.423881C6.14336 0.685739 6.06357 1.02666 6.13316 1.35352L7.44748 7.5144C7.55793 8.03368 8.01723 8.40399 8.5474 8.40119H17.5612ZM9.13406 6.53415L8.13667 1.86682H17.9614L16.964 6.53415H9.13406Z" fill="url(#paint2_linear_473_33918)"/>
<defs>
<linearGradient id="paint0_linear_473_33918" x1="17.1189" y1="15.7075" x2="14.6994" y2="12.4861" gradientUnits="userSpaceOnUse">
<stop stop-color="#339CFC"/>
<stop offset="1" stop-color="#1E61EB"/>
</linearGradient>
<linearGradient id="paint1_linear_473_33918" x1="14.766" y1="13.8868" x2="6.69083" y2="1.3608" gradientUnits="userSpaceOnUse">
<stop stop-color="#339CFC"/>
<stop offset="1" stop-color="#1E61EB"/>
</linearGradient>
<linearGradient id="paint2_linear_473_33918" x1="16.8429" y1="7.10285" x2="13.431" y2="-0.419103" gradientUnits="userSpaceOnUse">
<stop stop-color="#339CFC"/>
<stop offset="1" stop-color="#1E61EB"/>
</linearGradient>
</defs>
</svg>
