<svg width="44" height="45" viewBox="0 0 44 45" fill="none" xmlns="http://www.w3.org/2000/svg">
<rect y="0.5" width="44" height="44" rx="22" fill="#E2E3F3" fill-opacity="0.65"/>
<path d="M15.5 19H28.5C28.7762 19 29 18.801 29 18.5556V17.4444C29 17.199 28.7762 17 28.5 17H15.5C15.2238 17 15 17.199 15 17.4444V18.5556C15 18.801 15.2238 19 15.5 19ZM15.5 23.4444H28.5C28.7762 23.4444 29 23.2455 29 23V21.8889C29 21.6434 28.7762 21.4444 28.5 21.4444H15.5C15.2238 21.4444 15 21.6434 15 21.8889V23C15 23.2455 15.2238 23.4444 15.5 23.4444ZM15.5 27.8889H28.5C28.7762 27.8889 29 27.6899 29 27.4444V26.3333C29 26.0879 28.7762 25.8889 28.5 25.8889H15.5C15.2238 25.8889 15 26.0879 15 26.3333V27.4444C15 27.6899 15.2238 27.8889 15.5 27.8889Z" fill="black" fill-opacity="0.2"/>
</svg>
