<svg width="17" height="17" viewBox="0 0 17 17" fill="none" xmlns="http://www.w3.org/2000/svg">
<path fill-rule="evenodd" clip-rule="evenodd" d="M13.4912 1.3L13.4912 7.7L13.4912 7.772C12.4234 8.0396 11.6746 8.99924 11.6746 10.1C11.6746 11.2008 12.4234 12.1604 13.4912 12.428L13.4912 12.5L13.4912 15.7C13.4912 16.1418 13.8493 16.5 14.2912 16.5C14.733 16.5 15.0912 16.1418 15.0912 15.7L15.0912 12.5C15.0988 12.4282 15.0988 12.3558 15.0912 12.284C15.9469 11.8941 16.4961 11.0404 16.4961 10.1C16.4961 9.15963 15.9469 8.30589 15.0912 7.916C15.0988 7.8442 15.0988 7.7718 15.0912 7.7L15.0912 1.3C15.0912 0.858172 14.733 0.5 14.2912 0.5C13.8493 0.5 13.4912 0.858172 13.4912 1.3ZM14.8672 10.1C14.8672 10.5418 14.509 10.9 14.0672 10.9C13.6254 10.9 13.2672 10.5418 13.2672 10.1C13.2672 9.65817 13.6254 9.3 14.0672 9.3C14.509 9.3 14.8672 9.65817 14.8672 10.1Z" fill="white"/>
<path fill-rule="evenodd" clip-rule="evenodd" d="M7.89208 1.3L7.89208 2.9L7.89208 2.972C6.83204 3.24531 6.09127 4.20129 6.09127 5.296C6.09127 6.39071 6.83204 7.34669 7.89208 7.62L7.89208 15.7C7.89208 16.1418 8.25025 16.5 8.69208 16.5C9.13391 16.5 9.49208 16.1418 9.49208 15.7L9.49208 7.46C10.3338 7.06435 10.8711 6.21804 10.8711 5.288C10.8711 4.35796 10.3338 3.51165 9.49208 3.116C9.4997 3.0442 9.4997 2.9718 9.49208 2.9L9.49208 1.3C9.49208 0.858172 9.13391 0.5 8.69208 0.5C8.25025 0.5 7.89208 0.858172 7.89208 1.3ZM9.26779 5.3C9.26779 5.74183 8.90962 6.1 8.46779 6.1C8.02596 6.1 7.66779 5.74183 7.66779 5.3C7.66779 4.85817 8.02596 4.5 8.46779 4.5C8.90962 4.5 9.26779 4.85817 9.26779 5.3Z" fill="white"/>
<path fill-rule="evenodd" clip-rule="evenodd" d="M2.29028 1.3L2.29028 8.58C1.23775 8.85878 0.504767 9.81118 0.504767 10.9C0.504767 11.9888 1.23775 12.9412 2.29028 13.22L2.29028 15.7C2.29028 16.1418 2.64845 16.5 3.09028 16.5C3.5321 16.5 3.89028 16.1418 3.89028 15.7L3.89028 13.06C4.71825 12.659 5.24414 11.82 5.24414 10.9C5.24414 9.98003 4.71825 9.14101 3.89028 8.74L3.89028 1.3C3.89028 0.858172 3.5321 0.5 3.09028 0.5C2.64845 0.5 2.29028 0.858172 2.29028 1.3ZM3.66643 10.9C3.66643 11.3418 3.30826 11.7 2.86643 11.7C2.42461 11.7 2.06643 11.3418 2.06643 10.9C2.06643 10.4582 2.42461 10.1 2.86643 10.1C3.30826 10.1 3.66643 10.4582 3.66643 10.9Z" fill="white"/>
</svg>
