<svg width="50" height="50" viewBox="0 0 50 50" fill="none" xmlns="http://www.w3.org/2000/svg">
<path fill-rule="evenodd" clip-rule="evenodd" d="M33 26C34.6569 26 36 24.6569 36 23V19C36 17.3431 34.6569 16 33 16H29C27.3431 16 26 17.3431 26 19V23C26 24.6569 27.3431 26 29 26H33ZM34 23C34 23.5523 33.5523 24 33 24H29C28.4477 24 28 23.5523 28 23V19C28 18.4477 28.4477 18 29 18H33C33.5523 18 34 18.4477 34 19V23Z" fill="white"/>
<path fill-rule="evenodd" clip-rule="evenodd" d="M21 26C22.6569 26 24 24.6569 24 23V19C24 17.3431 22.6569 16 21 16H17C15.3431 16 14 17.3431 14 19V23C14 24.6569 15.3431 26 17 26H21ZM22 23C22 23.5523 21.5523 24 21 24H17C16.4477 24 16 23.5523 16 23V19C16 18.4477 16.4477 18 17 18H21C21.5523 18 22 18.4477 22 19V23Z" fill="white"/>
<path fill-rule="evenodd" clip-rule="evenodd" d="M35 29C35 28.4477 34.5523 28 34 28H28C27.4477 28 27 28.4477 27 29C27 29.5523 27.4477 30 28 30H34C34.5523 30 35 29.5523 35 29Z" fill="white"/>
<path fill-rule="evenodd" clip-rule="evenodd" d="M35 33C35 32.4477 34.5523 32 34 32H30C29.4477 32 29 32.4477 29 33C29 33.5523 29.4477 34 30 34H34C34.5523 34 35 33.5523 35 33Z" fill="white"/>
<path fill-rule="evenodd" clip-rule="evenodd" d="M23 29C23 28.4477 22.5523 28 22 28H16C15.4477 28 15 28.4477 15 29C15 29.5523 15.4477 30 16 30H22C22.5523 30 23 29.5523 23 29Z" fill="white"/>
<path fill-rule="evenodd" clip-rule="evenodd" d="M23 33C23 32.4477 22.5523 32 22 32H18C17.4477 32 17 32.4477 17 33C17 33.5523 17.4477 34 18 34H22C22.5523 34 23 33.5523 23 33Z" fill="white"/>
</svg>

