<svg width="56" height="49" viewBox="0 0 56 49" fill="none" xmlns="http://www.w3.org/2000/svg">
<path fill-rule="evenodd" clip-rule="evenodd" d="M7.63636 7.63623H48.3636C52.5811 7.63623 56 11.0551 56 15.2726V40.7271C56 44.9446 52.5811 48.3635 48.3636 48.3635H7.63636C3.41892 48.3635 0 44.9446 0 40.7271V15.2726C0 11.0551 3.41892 7.63623 7.63636 7.63623ZM48.3647 43.2717C49.7706 43.2717 50.9102 42.132 50.9102 40.7262V15.2717C50.9102 13.8659 49.7706 12.7262 48.3647 12.7262H7.63747C6.23165 12.7262 5.09201 13.8659 5.09201 15.2717V40.7262C5.09201 42.132 6.23165 43.2717 7.63747 43.2717H48.3647Z" fill="#D7D7D7"/>
<path d="M44.0083 21.9669C45.4142 21.9669 46.5538 20.8272 46.5538 19.4214C46.5538 18.0156 45.4142 16.876 44.0083 16.876C42.6025 16.876 41.4629 18.0156 41.4629 19.4214C41.4629 20.8272 42.6025 21.9669 44.0083 21.9669Z" fill="#D7D7D7"/>
<path fill-rule="evenodd" clip-rule="evenodd" d="M18.5537 27.0583C18.5537 21.435 23.1123 16.8765 28.7355 16.8765C34.3588 16.8765 38.9173 21.435 38.9173 27.0583C38.9173 32.6815 34.3588 37.2401 28.7355 37.2401C23.1123 37.2401 18.5537 32.6815 18.5537 27.0583ZM23.6457 27.0584C23.6457 29.87 25.925 32.1493 28.7366 32.1493C31.5483 32.1493 33.8275 29.87 33.8275 27.0584C33.8275 24.2467 31.5483 21.9675 28.7366 21.9675C25.925 21.9675 23.6457 24.2467 23.6457 27.0584Z" fill="#D7D7D7"/>
<path d="M8.3726 0C6.96679 0 5.82715 1.13964 5.82715 2.54545C5.82715 3.95127 6.96679 5.09091 8.3726 5.09091H18.5544C19.9602 5.09091 21.0999 3.95127 21.0999 2.54545C21.0999 1.13964 19.9602 0 18.5544 0H8.3726Z" fill="#D7D7D7"/>
</svg>
