<svg width="50" height="50" viewBox="0 0 50 50" fill="none" xmlns="http://www.w3.org/2000/svg">
<path fill-rule="evenodd" clip-rule="evenodd" d="M30 14H19C18.2044 14 17.4413 14.3161 16.8787 14.8787C16.3161 15.4413 16 16.2044 16 17V34.8C16.0006 35.2303 16.2521 35.6207 16.6436 35.7992C17.0351 35.9777 17.4947 35.9116 17.82 35.63L20.5 33.33L23.29 35.72C23.6649 36.0427 24.2091 36.0754 24.62 35.8L28.42 33.26L31.18 35.63C31.5053 35.9116 31.9649 35.9777 32.3564 35.7992C32.7479 35.6207 32.9994 35.2303 33 34.8V17C33 15.3431 31.6569 14 30 14ZM19.78 31.3L18 32.83V17C18 16.4477 18.4477 16 19 16H30C30.5523 16 31 16.4477 31 17V32.84L29.21 31.29C28.8337 30.9706 28.2918 30.938 27.88 31.21L24.08 33.75L21.22 31.3C20.8036 30.9505 20.1964 30.9505 19.78 31.3Z" fill="white"/>
<path fill-rule="evenodd" clip-rule="evenodd" d="M30 14H19C18.2044 14 17.4413 14.3161 16.8787 14.8787C16.3161 15.4413 16 16.2044 16 17V34.8C16.0006 35.2303 16.2521 35.6207 16.6436 35.7992C17.0351 35.9777 17.4947 35.9116 17.82 35.63L20.5 33.33L23.29 35.72C23.6649 36.0427 24.2091 36.0754 24.62 35.8L28.42 33.26L31.18 35.63C31.5053 35.9116 31.9649 35.9777 32.3564 35.7992C32.7479 35.6207 32.9994 35.2303 33 34.8V17C33 15.3431 31.6569 14 30 14ZM19.78 31.3L18 32.83V17C18 16.4477 18.4477 16 19 16H30C30.5523 16 31 16.4477 31 17V32.84L29.21 31.29C28.8337 30.9706 28.2918 30.938 27.88 31.21L24.08 33.75L21.22 31.3C20.8036 30.9505 20.1964 30.9505 19.78 31.3Z" fill="white"/>
<path d="M29 20H22C21.4477 20 21 19.5523 21 19C21 18.4477 21.4477 18 22 18H29C29.5523 18 30 18.4477 30 19C30 19.5523 29.5523 20 29 20Z" fill="white"/>
<path d="M29 20H22C21.4477 20 21 19.5523 21 19C21 18.4477 21.4477 18 22 18H29C29.5523 18 30 18.4477 30 19C30 19.5523 29.5523 20 29 20Z" fill="white"/>
<path d="M29 24H25C24.4477 24 24 23.5523 24 23C24 22.4477 24.4477 22 25 22H29C29.5523 22 30 22.4477 30 23C30 23.5523 29.5523 24 29 24Z" fill="white"/>
<path d="M29 24H25C24.4477 24 24 23.5523 24 23C24 22.4477 24.4477 22 25 22H29C29.5523 22 30 22.4477 30 23C30 23.5523 29.5523 24 29 24Z" fill="white"/>
<path d="M21 26H29C29.5523 26 30 26.4477 30 27C30 27.5523 29.5523 28 29 28H21C20.4477 28 20 27.5523 20 27C20 26.4477 20.4477 26 21 26Z" fill="white"/>
<path d="M21 26H29C29.5523 26 30 26.4477 30 27C30 27.5523 29.5523 28 29 28H21C20.4477 28 20 27.5523 20 27C20 26.4477 20.4477 26 21 26Z" fill="white"/>
</svg>
