<svg width="89" height="97" viewBox="0 0 89 97" fill="none" xmlns="http://www.w3.org/2000/svg">
<path d="M25.4709 11.5291C37.2606 4.72223 51.7862 4.72223 63.576 11.5291C75.3658 18.3359 82.6286 30.9154 82.6286 44.5291C82.6286 58.1427 75.3658 70.7222 63.576 77.5291C51.7862 84.3359 37.2606 84.3359 25.4709 77.5291C13.6811 70.7222 6.41832 58.1427 6.41832 44.5291C6.41832 30.9154 13.6811 18.3359 25.4709 11.5291Z" fill="white"/>
<path d="M27.6359 15.2791C38.086 9.24573 50.9609 9.24573 61.4109 15.2791C71.861 21.3124 78.2984 32.4624 78.2984 44.5291C78.2984 56.5957 71.861 67.7457 61.4109 73.7791C50.9609 79.8124 38.086 79.8124 27.6359 73.7791C17.1859 67.7457 10.7484 56.5957 10.7484 44.5291C10.7484 32.4624 17.1859 21.3124 27.6359 15.2791Z" fill="#EAEFFB"/>
<rect x="11.5234" y="64.5291" width="65" height="26" rx="13" fill="url(#paint0_linear_437_36436)"/>
<path d="M28.1439 80.4191V81.5291H26.7639V80.4191H23.3939V79.6091L27.3239 74.6791H28.1439V79.1191H28.8239V80.4191H28.1439ZM26.7539 76.9191L25.0039 79.1191H26.7539V76.9191ZM30.8432 75.6291C31.5298 74.9424 32.3565 74.5991 33.3232 74.5991C34.2898 74.5991 35.1132 74.9424 35.7932 75.6291C36.4798 76.3091 36.8232 77.1324 36.8232 78.0991C36.8232 79.0657 36.4832 79.8924 35.8032 80.5791C35.1232 81.2591 34.2965 81.5991 33.3232 81.5991C32.3498 81.5991 31.5232 81.2591 30.8432 80.5791C30.1632 79.8924 29.8232 79.0657 29.8232 78.0991C29.8232 77.1324 30.1632 76.3091 30.8432 75.6291ZM34.8332 76.5191C34.4265 76.1057 33.9232 75.8991 33.3232 75.8991C32.7232 75.8991 32.2198 76.1057 31.8132 76.5191C31.4132 76.9324 31.2132 77.4591 31.2132 78.0991C31.2132 78.7457 31.4132 79.2724 31.8132 79.6791C32.2198 80.0857 32.7232 80.2891 33.3232 80.2891C33.9298 80.2891 34.4332 80.0857 34.8332 79.6791C35.2398 79.2724 35.4432 78.7457 35.4432 78.0991C35.4432 77.4591 35.2398 76.9324 34.8332 76.5191ZM42.5964 77.2391C43.0097 76.7257 43.5664 76.4691 44.2664 76.4691C44.9664 76.4691 45.5464 76.7157 46.0064 77.2091C46.4664 77.7024 46.6964 78.3091 46.6964 79.0291C46.6964 79.7491 46.4664 80.3591 46.0064 80.8591C45.5464 81.3524 44.9664 81.5991 44.2664 81.5991C43.7264 81.5991 43.2864 81.4124 42.9464 81.0391V83.3691H41.6764V76.5291H42.5264L42.5964 77.2391ZM44.1364 77.6991C43.7897 77.6991 43.4864 77.8224 43.2264 78.0691C42.973 78.3157 42.8464 78.6357 42.8464 79.0291C42.8464 79.4224 42.973 79.7457 43.2264 79.9991C43.4864 80.2457 43.7897 80.3691 44.1364 80.3691C44.483 80.3691 44.783 80.2457 45.0364 79.9991C45.2964 79.7457 45.4264 79.4224 45.4264 79.0291C45.4264 78.6357 45.2997 78.3157 45.0464 78.0691C44.793 77.8224 44.4897 77.6991 44.1364 77.6991ZM52.8307 81.5291H51.9807L51.9107 80.8191C51.5041 81.3324 50.9507 81.5891 50.2507 81.5891C49.5507 81.5891 48.9674 81.3424 48.5007 80.8491C48.0407 80.3557 47.8107 79.7491 47.8107 79.0291C47.8107 78.3091 48.0407 77.7024 48.5007 77.2091C48.9674 76.7091 49.5507 76.4591 50.2507 76.4591C50.9507 76.4591 51.5041 76.7191 51.9107 77.2391L51.9807 76.5291H52.8307V81.5291ZM50.3707 80.3591C50.7174 80.3591 51.0174 80.2357 51.2707 79.9891C51.5307 79.7424 51.6607 79.4224 51.6607 79.0291C51.6607 78.6357 51.5307 78.3157 51.2707 78.0691C51.0174 77.8157 50.7174 77.6891 50.3707 77.6891C50.0241 77.6891 49.7207 77.8157 49.4607 78.0691C49.2074 78.3157 49.0807 78.6357 49.0807 79.0291C49.0807 79.4224 49.2074 79.7424 49.4607 79.9891C49.7141 80.2357 50.0174 80.3591 50.3707 80.3591ZM59.2565 81.5291H57.9865V79.6091H55.8065V81.5291H54.5365V76.5291H55.8065V78.3791H57.9865V76.5291H59.2565V81.5291ZM62.2323 77.7591V81.5291H60.9623V76.5291H64.7123V77.7591H62.2323Z" fill="black"/>
<defs>
<linearGradient id="paint0_linear_437_36436" x1="11.5234" y1="77.9773" x2="76.5234" y2="77.9773" gradientUnits="userSpaceOnUse">
<stop stop-color="#FB9B41"/>
<stop offset="1" stop-color="#F2B96D"/>
</linearGradient>
</defs>
</svg>
