<svg width="66" height="64" viewBox="0 0 66 64" fill="none" xmlns="http://www.w3.org/2000/svg">
<circle cx="33" cy="32" r="32" fill="white"/>
<path fill-rule="evenodd" clip-rule="evenodd" d="M7.18056 28.0682C6.56028 28.0682 6.00009 28.3642 5.75463 28.8205L4.74833 30.7166C4.53037 31.1277 4.9062 31.5832 5.46232 31.5832H8.73889C8.89472 31.5832 9.03528 31.5084 9.09537 31.3941L9.4213 30.7824H5.97361L6.89537 29.0483L6.39528 28.8584H10.1893C10.3451 28.8584 10.4856 28.7835 10.5457 28.6693L10.8656 28.0682H7.18056ZM15.6332 30.8259C15.3898 31.2856 14.8286 31.5832 14.2063 31.5832H10.7433C10.1872 31.5832 9.81241 31.1269 10.0304 30.7158L11.0367 28.8238C11.2801 28.365 11.8413 28.0674 12.4626 28.0674H15.9256C16.4817 28.0674 16.8565 28.5237 16.6385 28.9348L15.6332 30.8259ZM14.4996 30.5932L15.4214 28.8584H11.6987L12.1754 29.0483L11.2536 30.7824H14.1442C14.299 30.7824 14.4385 30.7084 14.4996 30.5932ZM18.6684 36.8158H17.932L19.3824 34.0902C19.3254 34.0902 17.7782 34.0902 17.7782 34.0902L18.2019 33.3H22.6559L22.3616 33.8599C22.2913 33.994 22.0906 34.0902 21.8951 34.0902H20.6281L19.3824 36.4368C19.2612 36.667 18.9801 36.8158 18.6684 36.8158ZM33.2455 35.8382H32.8533L31.788 35.8374L31.2583 36.8158H30.0341L31.9092 33.3008H33.1304L32.2473 34.9601L35.147 33.3559C35.2122 33.3197 35.2886 33.3008 35.3681 33.3008H37.2034L33.9544 35.113L35.421 36.8166H34.0796L33.2455 35.8382ZM30.9029 33.3H29.6481L27.776 36.8158H28.6896C28.8862 36.8158 29.096 36.7114 29.1663 36.5774L30.2581 34.5169L30.9029 33.3ZM27.2321 36.8158H25.9244L25.3856 36.015H23.0715L22.8464 36.4376C22.7242 36.667 22.4431 36.8158 22.1324 36.8158H21.3869L23.2579 33.3008H27.4185C27.9756 33.3008 28.3515 33.7572 28.1325 34.1683L27.3258 35.6836C27.2189 35.8851 26.9724 36.015 26.7005 36.015L27.2321 36.8158ZM27.6416 35.0744L26.949 34.091L23.5186 34.0934L23.9932 34.2776L23.487 35.233H26.0873C26.2431 35.233 26.3837 35.1582 26.4448 35.0431L26.949 34.0902L27.6416 35.0744ZM38.0366 34.7603H40.8497L40.5849 35.2561C40.5238 35.3704 40.3832 35.4444 40.2284 35.4444H37.6699L37.3654 36.0142H40.8019L40.479 36.6259C40.4179 36.741 40.2783 36.8158 40.1225 36.8158H36.2745C35.9965 36.8158 35.8091 36.5872 35.9181 36.3817L37.3542 33.6782C37.4764 33.4488 37.7565 33.3 38.0671 33.3H42.2461L41.9273 33.901C41.8662 34.0162 41.7256 34.0902 41.5708 34.0902H37.8084L38.2932 34.276L38.0366 34.7603ZM17.6295 30.7824L19.0595 28.069H18.313C18.0023 28.069 17.7222 28.2179 17.6 28.4473L16.39 30.7166C16.171 31.1277 16.5469 31.584 17.103 31.584H20.2787C20.902 31.584 21.4643 31.2856 21.7077 30.8251L23.1662 28.069L22.4278 28.0682C22.1161 28.0682 21.835 28.217 21.7128 28.4473L20.5761 30.5916C20.516 30.7067 20.3744 30.7824 20.2186 30.7824H17.6295ZM30.4303 31.584H29.6939L31.1453 28.8584C31.0882 28.8584 29.5411 28.8584 29.5411 28.8584L29.9648 28.0682H34.4188L34.1244 28.6281C34.0542 28.7622 33.8535 28.8584 33.658 28.8584H32.3909L31.1453 31.205C31.0231 31.4344 30.7419 31.584 30.4303 31.584ZM43.9674 30.7824L44.5001 31.5832H43.1923L42.6525 30.7824H40.3384L40.1133 31.205C39.9911 31.4344 39.71 31.5832 39.3993 31.5832H38.6528L40.5238 28.0682H44.6844C45.2416 28.0682 45.6174 28.5245 45.3984 28.9356L44.5918 30.451C44.4869 30.6524 44.2404 30.7824 43.9674 30.7824ZM44.2169 28.8584L43.7128 29.8113C43.6517 29.9264 43.5111 30.0012 43.3553 30.0012H40.755L41.2602 29.0458L40.7856 28.8616L44.2169 28.8584ZM38.3625 29.5285H35.5422L35.7999 29.0442L35.3141 28.8584H39.0846C39.2405 28.8584 39.381 28.7835 39.4421 28.6693L39.7619 28.0682H35.5728C35.2611 28.0682 34.98 28.217 34.8578 28.4464L33.4176 31.1499C33.3086 31.3554 33.496 31.5832 33.7751 31.5832H37.6322C37.7881 31.5832 37.9286 31.5084 37.9897 31.3933L38.3136 30.7815H34.869L35.1745 30.2117H37.7392C37.894 30.2117 38.0345 30.1377 38.0967 30.0235L38.3625 29.5285ZM23.594 31.205C23.4718 31.4344 23.1906 31.5832 22.88 31.5832H22.1334L24.0055 28.0682L24.9405 28.0674C25.0841 28.0674 25.2165 28.1307 25.2837 28.2335L26.7769 30.4987L27.8748 28.4464C27.997 28.2178 28.2771 28.069 28.5878 28.069L29.3456 28.0682L27.5723 31.3941C27.5112 31.5084 27.3706 31.5832 27.2148 31.5832H26.4204C26.2768 31.5832 26.1444 31.5199 26.0771 31.4179L24.639 29.2415L23.594 31.205ZM14.904 36.015L15.2034 35.4526H12.8731H12.5879C12.0318 35.4526 11.6559 34.9971 11.8729 34.5868L11.989 34.3672L12.1519 34.0597C12.3954 33.5993 12.9576 33.3 13.5819 33.3H17.5705L17.2517 33.901C17.1906 34.0162 17.05 34.091 16.8942 34.091H12.7722L13.2601 34.2809L13.0686 34.6427H15.6811C16.2382 34.6427 16.6141 35.099 16.3951 35.5101L16.1028 36.0594C15.8583 36.5182 15.2961 36.8158 14.6748 36.8158H10.6853L11.0132 36.2033C11.0744 36.089 11.2149 36.015 11.3697 36.015H14.904Z" fill="#1E202F"/>
<path d="M48.5795 37V35.2955L51.8352 32.6023C52.0511 32.4233 52.2358 32.2557 52.3892 32.0994C52.5455 31.9403 52.6648 31.777 52.7472 31.6094C52.8324 31.4418 52.875 31.2557 52.875 31.0511C52.875 30.8267 52.8267 30.6349 52.7301 30.4759C52.6364 30.3168 52.5057 30.1946 52.3381 30.1094C52.1705 30.0213 51.9773 29.9773 51.7585 29.9773C51.5398 29.9773 51.3466 30.0213 51.179 30.1094C51.0142 30.1974 50.8864 30.3267 50.7955 30.4972C50.7045 30.6676 50.6591 30.875 50.6591 31.1193H48.4091C48.4091 30.5057 48.5469 29.9773 48.8224 29.5341C49.098 29.0909 49.4872 28.75 49.9901 28.5114C50.4929 28.2727 51.0824 28.1534 51.7585 28.1534C52.4574 28.1534 53.0625 28.2656 53.5739 28.4901C54.0881 28.7116 54.4844 29.0241 54.7628 29.4276C55.044 29.831 55.1847 30.304 55.1847 30.8466C55.1847 31.1818 55.1151 31.5156 54.9759 31.848C54.8366 32.1776 54.5866 32.5426 54.2259 32.9432C53.8651 33.3438 53.3523 33.821 52.6875 34.375L51.8693 35.0568V35.108H55.2784V37H48.5795Z" fill="black"/>
</svg>
