<svg width="16" height="16" viewBox="0 0 16 16" fill="none" xmlns="http://www.w3.org/2000/svg">
<path fill-rule="evenodd" clip-rule="evenodd" d="M12.9872 0.8L12.9872 7.2L12.9872 7.272C11.9195 7.5396 11.1707 8.49924 11.1707 9.6C11.1707 10.7008 11.9195 11.6604 12.9872 11.928L12.9872 12L12.9872 15.2C12.9872 15.6418 13.3454 16 13.7872 16C14.2291 16 14.5872 15.6418 14.5872 15.2L14.5872 12C14.5949 11.9282 14.5949 11.8558 14.5872 11.784C15.443 11.3941 15.9922 10.5404 15.9922 9.6C15.9922 8.65963 15.443 7.80589 14.5872 7.416C14.5949 7.3442 14.5949 7.2718 14.5872 7.2L14.5872 0.8C14.5872 0.358172 14.2291 -7.70681e-08 13.7872 -9.6381e-08C13.3454 -1.15694e-07 12.9872 0.358172 12.9872 0.8ZM14.3633 9.6C14.3633 10.0418 14.0051 10.4 13.5633 10.4C13.1215 10.4 12.7633 10.0418 12.7633 9.6C12.7633 9.15817 13.1215 8.8 13.5633 8.8C14.0051 8.8 14.3633 9.15817 14.3633 9.6Z" fill="white"/>
<path fill-rule="evenodd" clip-rule="evenodd" d="M7.38818 0.8L7.38818 2.4L7.38818 2.472C6.32813 2.74531 5.58736 3.70129 5.58736 4.796C5.58736 5.89071 6.32813 6.84669 7.38817 7.12L7.38817 15.2C7.38817 15.6418 7.74635 16 8.18817 16C8.63 16 8.98817 15.6418 8.98817 15.2L8.98817 6.96C9.82986 6.56435 10.3672 5.71804 10.3672 4.788C10.3672 3.85796 9.82986 3.01165 8.98818 2.616C8.99579 2.5442 8.99579 2.4718 8.98818 2.4L8.98818 0.8C8.98818 0.358172 8.63 -7.59347e-08 8.18818 -9.52477e-08C7.74635 -1.14561e-07 7.38818 0.358172 7.38818 0.8ZM8.76388 4.8C8.76388 5.24183 8.40571 5.6 7.96388 5.6C7.52205 5.6 7.16388 5.24183 7.16388 4.8C7.16388 4.35817 7.52205 4 7.96388 4C8.40571 4 8.76388 4.35817 8.76388 4.8Z" fill="white"/>
<path fill-rule="evenodd" clip-rule="evenodd" d="M1.78832 0.8L1.78832 8.08C0.735795 8.35878 0.00281436 9.31118 0.00281432 10.4C0.00281427 11.4888 0.735795 12.4412 1.78832 12.72L1.78832 15.2C1.78832 15.6418 2.14649 16 2.58832 16C3.03015 16 3.38832 15.6418 3.38832 15.2L3.38832 12.56C4.2163 12.159 4.74219 11.32 4.74219 10.4C4.74219 9.48003 4.2163 8.64101 3.38832 8.24L3.38832 0.8C3.38832 0.358172 3.03015 -7.48355e-08 2.58832 -9.41484e-08C2.1465 -1.13461e-07 1.78832 0.358172 1.78832 0.8ZM3.16448 10.4C3.16448 10.8418 2.80631 11.2 2.36448 11.2C1.92265 11.2 1.56448 10.8418 1.56448 10.4C1.56448 9.95817 1.92265 9.6 2.36448 9.6C2.80631 9.6 3.16448 9.95817 3.16448 10.4Z" fill="white"/>
</svg>
