<svg xmlns="http://www.w3.org/2000/svg" width="211" height="152" viewBox="0 0 211 152" fill="none">
<path d="M152.554 54.5C152.554 24.8031 118.612 0.75 76.721 0.75C34.8304 0.75 0.887695 24.8031 0.887695 54.5C0.887695 66.0227 6.02832 76.6383 14.7419 85.4062C9.85645 95.5516 1.79915 103.614 1.68978 103.715C0.887695 104.488 0.668945 105.63 1.1429 106.638C1.61686 107.645 2.6377 108.25 3.80436 108.25C17.1481 108.25 28.195 104.118 36.1429 99.8516C47.8825 105.126 61.7731 108.25 76.721 108.25C118.612 108.25 152.554 84.1969 152.554 54.5ZM197.034 128.406C205.747 119.672 210.888 109.023 210.888 97.5C210.888 75.0258 191.382 55.7766 163.747 47.7477C164.075 49.9648 164.221 52.2156 164.221 54.5C164.221 90.0758 124.955 119 76.721 119C72.7835 119 68.9554 118.731 65.1637 118.362C76.6481 137.678 103.627 151.25 135.054 151.25C150.002 151.25 163.893 148.159 175.632 142.852C183.58 147.118 194.627 151.25 207.971 151.25C209.138 151.25 210.195 150.612 210.632 149.637C211.106 148.663 210.888 147.521 210.086 146.715C209.976 146.614 201.919 138.585 197.034 128.406Z" fill="#B2B9D1"></path>
</svg>