<svg width="15" height="12" viewBox="0 0 15 12" fill="none" xmlns="http://www.w3.org/2000/svg">
<path fill-rule="evenodd" clip-rule="evenodd" d="M13.8 10.125C13.9384 10.125 14.0738 10.1653 14.1889 10.2409C14.304 10.3164 14.3937 10.4238 14.4467 10.5494C14.4997 10.675 14.5136 10.8132 14.4865 10.9466C14.4595 11.08 14.3929 11.2025 14.295 11.2986C14.1971 11.3948 14.0723 11.4603 13.9365 11.4868C13.8008 11.5133 13.66 11.4997 13.5321 11.4477C13.4042 11.3956 13.2949 11.3075 13.218 11.1944C13.141 11.0814 13.1 10.9485 13.1 10.8125C13.1 10.6302 13.1738 10.4553 13.305 10.3264C13.4363 10.1974 13.6143 10.125 13.8 10.125ZM13.8 7.375C13.9857 7.375 14.1637 7.44744 14.295 7.57637C14.4262 7.70531 14.5 7.88016 14.5 8.0625C14.5 8.24484 14.4262 8.41969 14.295 8.54863C14.1637 8.67756 13.9857 8.75 13.8 8.75C13.243 8.75 12.7089 8.96729 12.3151 9.35408C11.9212 9.74087 11.7 10.2655 11.7 10.8125C11.7 10.9948 11.6262 11.1697 11.495 11.2986C11.3637 11.4276 11.1857 11.5 11 11.5C10.8143 11.5 10.6363 11.4276 10.505 11.2986C10.3738 11.1697 10.3 10.9948 10.3 10.8125C10.3 9.90082 10.6688 9.02648 11.3251 8.38183C11.9815 7.73717 12.8717 7.375 13.8 7.375ZM13.8 4.625C13.9857 4.625 14.1637 4.69744 14.295 4.82637C14.4262 4.95531 14.5 5.13016 14.5 5.3125C14.5 5.49484 14.4262 5.66969 14.295 5.79863C14.1637 5.92756 13.9857 6 13.8 6C12.5004 6 11.2541 6.50702 10.3352 7.40953C9.41623 8.31205 8.9 9.53615 8.9 10.8125C8.9 10.9948 8.82624 11.1697 8.69496 11.2986C8.56369 11.4276 8.38565 11.5 8.2 11.5C8.01435 11.5 7.83631 11.4276 7.70504 11.2986C7.57376 11.1697 7.5 10.9948 7.5 10.8125C7.5 9.17147 8.16375 7.59766 9.34523 6.43728C10.5267 5.2769 12.1291 4.625 13.8 4.625ZM1.2 0.5H13.8C13.9857 0.5 14.1637 0.572443 14.295 0.701374C14.4262 0.830305 14.5 1.00516 14.5 1.1875V2.5625C14.5 2.74484 14.4262 2.91969 14.295 3.04863C14.1637 3.17756 13.9857 3.25 13.8 3.25C13.6143 3.25 13.4363 3.17756 13.305 3.04863C13.1738 2.91969 13.1 2.74484 13.1 2.5625V1.875H1.9V10.125H5.4C5.58565 10.125 5.76369 10.1974 5.89497 10.3264C6.02624 10.4553 6.1 10.6302 6.1 10.8125C6.1 10.9948 6.02624 11.1697 5.89497 11.2986C5.76369 11.4276 5.58565 11.5 5.4 11.5H1.2C1.01435 11.5 0.83631 11.4276 0.705035 11.2986C0.57376 11.1697 0.5 10.9948 0.5 10.8125V1.1875C0.5 1.00516 0.57376 0.830305 0.705035 0.701374C0.83631 0.572443 1.01435 0.5 1.2 0.5Z" fill="#C5CFE4"/>
</svg>
