<svg width="16" height="15" viewBox="0 0 16 15" fill="none" xmlns="http://www.w3.org/2000/svg">
<path fill-rule="evenodd" clip-rule="evenodd" d="M7.95904 4.75549C6.3604 4.75549 5.06445 5.9721 5.06445 7.47286C5.06445 8.97362 6.3604 10.1902 7.95904 10.1902C9.55768 10.1902 10.8536 8.97362 10.8536 7.47286C10.8536 6.75217 10.5487 6.061 10.0058 5.55139C9.46299 5.04179 8.72674 4.75549 7.95904 4.75549ZM7.95926 8.83155C7.15994 8.83155 6.51196 8.22325 6.51196 7.47287C6.51196 6.72249 7.15994 6.11419 7.95926 6.11419C8.75858 6.11419 9.40655 6.72249 9.40655 7.47287C9.40655 8.22325 8.75858 8.83155 7.95926 8.83155Z" fill="#CDD6E6"/>
<path fill-rule="evenodd" clip-rule="evenodd" d="M14.0316 5.11551C14.6956 4.30361 14.6151 3.15531 13.8435 2.43212L13.3297 1.94978C12.5544 1.20562 11.3064 1.12947 10.4351 1.77315C10.2955 0.772508 9.39685 0.0184441 8.32202 7.44375e-05H7.59838C6.50149 -0.00865932 5.57 0.752121 5.42743 1.77315C4.56258 1.14981 3.33939 1.2254 2.56903 1.94978L2.05524 2.43212C1.28361 3.15531 1.20309 4.30361 1.86709 5.11551C0.796311 5.25764 0.000243134 6.11794 7.92922e-05 7.13316V7.8125C-0.00922407 8.84223 0.801174 9.71669 1.8888 9.85052C1.20313 10.6685 1.28425 11.8401 2.07695 12.5679L2.59074 13.0502C3.36109 13.7746 4.58429 13.8502 5.44914 13.2268C5.5917 14.2479 6.5232 15.0087 7.62009 14.9999H8.34373C9.44062 15.0087 10.3721 14.2479 10.5147 13.2268C11.386 13.8705 12.634 13.7944 13.4093 13.0502L13.9231 12.5679C14.7157 11.8401 14.7969 10.6685 14.1112 9.85052C15.1988 9.71669 16.0092 8.84223 15.9999 7.8125V7.13316C15.9936 6.08568 15.1425 5.21326 14.0316 5.11551ZM14.4732 7.83287C14.4732 8.20806 14.1492 8.51221 13.7495 8.51221C13.2165 8.50934 12.7348 8.81 12.5313 9.27252C12.3279 9.73505 12.4433 10.2672 12.8232 10.6182C13.1038 10.8831 13.1038 11.3111 12.8232 11.576L12.3095 12.0584C12.0272 12.3218 11.5714 12.3218 11.2891 12.0584C10.918 11.7043 10.3564 11.5947 9.86571 11.7804C9.37499 11.9662 9.05152 12.4109 9.04581 12.9076C9.04581 13.2827 8.72182 13.5869 8.32216 13.5869H7.59851C7.19885 13.5869 6.87487 13.2827 6.87487 12.9076C6.87792 12.4072 6.55766 11.9549 6.06497 11.764C5.57228 11.573 5.00545 11.6813 4.63156 12.038C4.34931 12.3014 3.89347 12.3014 3.61122 12.038L3.09743 11.5489C2.81685 11.2839 2.81685 10.856 3.09743 10.591C3.47211 10.2393 3.58421 9.71039 3.38144 9.25087C3.17868 8.79134 2.70098 8.49176 2.17116 8.49183C1.7715 8.49183 1.44751 8.18768 1.44751 7.81249V7.13315C1.44751 6.75796 1.7715 6.45381 2.17116 6.45381C2.70418 6.45668 3.1859 6.15603 3.38933 5.6935C3.59276 5.23098 3.47733 4.69886 3.09743 4.34785C2.82161 4.0837 2.82161 3.66093 3.09743 3.39678L3.61845 2.90765C3.9007 2.64425 4.35654 2.64425 4.63879 2.90765C5.0134 3.25939 5.57684 3.36463 6.06633 3.17428C6.55582 2.98393 6.87495 2.53548 6.87487 2.03809C6.87487 1.6629 7.19885 1.35875 7.59851 1.35875H8.32216C8.72182 1.35875 9.04581 1.6629 9.04581 2.03809C9.04275 2.53848 9.36301 2.99071 9.8557 3.18168C10.3484 3.37266 10.9152 3.2643 11.2891 2.90765C11.5714 2.64425 12.0272 2.64425 12.3095 2.90765L12.8232 3.38998C13.1038 3.65495 13.1038 4.08288 12.8232 4.34785C12.4433 4.69886 12.3279 5.23098 12.5313 5.6935C12.7348 6.15603 13.2165 6.45668 13.7495 6.45381C14.1492 6.45381 14.4732 6.75796 14.4732 7.13315V7.83287Z" fill="#CDD6E6"/>
</svg>

