<svg width="14" height="19" viewBox="0 0 14 19" fill="none" xmlns="http://www.w3.org/2000/svg">
    <path fill-rule="evenodd" clip-rule="evenodd" d="M2.58303 6.72918L2.32083 6.28808L0.887514 3.9442C0.394953 3.14351 0.377094 2.14215 0.840797 1.32476C1.3045 0.507366 2.17766 0.00103732 3.12489 0.000256734H10.6149C11.9081 -0.0176245 13.0213 0.900436 13.2368 2.16251C13.3605 2.83867 13.1995 3.5355 12.7911 4.09123L11.1218 6.40917C11.1193 6.42638 11.1193 6.44385 11.1218 6.46106C12.9857 7.78693 14.063 9.94193 13.9971 12.2126C13.9983 14.0572 13.2223 15.8188 11.8559 17.0734C9.11913 19.6721 4.78771 19.6376 2.0936 16.9955C0.649219 15.6401 -0.112735 13.7201 0.0135385 11.7542C0.0968235 9.79068 1.03364 7.95857 2.58303 6.72918ZM1.76172 12.0916C1.76172 14.9576 4.10947 17.281 7.00557 17.281C9.90167 17.281 12.2494 14.9576 12.2494 12.0916C12.2494 9.22553 9.90167 6.90216 7.00557 6.90216C4.10947 6.90216 1.76172 9.22553 1.76172 12.0916ZM9.4088 5.62211C7.67355 4.98337 5.75314 5.0518 4.06881 5.81239C3.94995 5.62211 3.83668 5.43183 3.72341 5.24155C3.55351 4.95613 3.38361 4.67072 3.19483 4.3853L2.37329 3.04471C2.1385 2.66519 2.23302 2.1713 2.59179 1.90304C2.7502 1.78528 2.94435 1.72429 3.14239 1.73006H10.5712C10.9117 1.71369 11.2307 1.89476 11.3884 2.19387C11.5461 2.49297 11.5137 2.85552 11.3053 3.12255L9.55737 5.57021C9.52241 5.62211 9.48745 5.62211 9.4088 5.62211Z" fill="url(#paint0_linear_437_28722)"/>
    <path d="M6.48944 11.6937C6.36053 11.7407 6.22926 11.7811 6.09616 11.8148C5.73506 11.854 5.38712 11.668 5.22218 11.3477C5.05608 11.021 5.11557 10.6262 5.37076 10.3617C5.79026 9.94658 6.24473 9.49683 6.63802 9.11627C6.81114 8.92992 7.04153 8.80527 7.2935 8.76166C7.52416 8.73745 7.75508 8.80498 7.9354 8.94936C8.11572 9.09374 8.23065 9.30314 8.25487 9.53142C8.25487 9.59197 8.25487 9.64386 8.25487 9.7044V14.7208C8.27546 15.025 8.13268 15.3175 7.87907 15.4906C7.61936 15.6992 7.26215 15.7428 6.95902 15.6029C6.65588 15.463 6.46 15.1642 6.45449 14.8333C6.45449 13.8213 6.45449 12.818 6.45449 11.8148L6.48944 11.6937Z" fill="url(#paint1_linear_437_28722)"/>
    <defs>
        <linearGradient id="paint0_linear_437_28722" x1="3.18182" y1="16.0636" x2="13.4359" y2="5.98946" gradientUnits="userSpaceOnUse">
            <stop stop-color="#339CFC"/>
            <stop offset="1" stop-color="#1E61EB"/>
        </linearGradient>
        <linearGradient id="paint1_linear_437_28722" x1="5.8398" y1="14.6134" x2="9.14429" y2="12.6238" gradientUnits="userSpaceOnUse">
            <stop stop-color="#339CFC"/>
            <stop offset="1" stop-color="#1E61EB"/>
        </linearGradient>
    </defs>
</svg>


