<svg width="82" height="90" viewBox="0 0 82 90" fill="none" xmlns="http://www.w3.org/2000/svg">
<circle opacity="0.25" cx="33.5" cy="41.5" r="32.5" stroke="white" stroke-width="2"/>
<g opacity="0.45" filter="url(#filter0_f_388_15781)">
<path d="M31.9384 73.4457C31.8975 74.2821 32.5426 74.9968 33.3799 74.9998C39.9585 75.0235 46.4112 73.1089 51.9242 69.4786C57.86 65.5697 62.3989 59.8744 64.8845 53.2159C67.3701 46.5575 67.6737 39.281 65.7512 32.4387C63.9658 26.0838 60.3461 20.4092 55.3613 16.1163C54.7268 15.5698 53.7712 15.687 53.254 16.3455C52.7368 17.0041 52.8543 17.9544 53.4863 18.5037C57.9664 22.3972 61.2206 27.5234 62.832 33.2589C64.5804 39.4819 64.3044 46.0997 62.0437 52.1554C59.7831 58.2112 55.6551 63.3911 50.2565 66.9461C45.2809 70.2226 39.4636 71.9624 33.528 71.9677C32.6907 71.9685 31.9792 72.6094 31.9384 73.4457Z" fill="url(#paint0_linear_388_15781)"/>
</g>
<path d="M31.9384 73.4457C31.8975 74.2821 32.5425 74.9968 33.3799 74.9998C38.2347 75.0172 43.0358 73.9791 47.4498 71.9574C48.211 71.6087 48.5032 70.6914 48.1204 69.9466C47.7377 69.2019 46.8251 68.9122 46.0622 69.2574C42.1239 71.0398 37.8509 71.9638 33.5279 71.9677C32.6906 71.9685 31.9792 72.6094 31.9384 73.4457Z" fill="url(#paint1_linear_388_15781)"/>
<defs>
<filter id="filter0_f_388_15781" x="16.9355" y="0.769714" width="65.0645" height="89.2303" filterUnits="userSpaceOnUse" color-interpolation-filters="sRGB">
<feFlood flood-opacity="0" result="BackgroundImageFix"/>
<feBlend mode="normal" in="SourceGraphic" in2="BackgroundImageFix" result="shape"/>
<feGaussianBlur stdDeviation="7.5" result="effect1_foregroundBlur_388_15781"/>
</filter>
<linearGradient id="paint0_linear_388_15781" x1="15.2273" y1="64.6455" x2="49.9455" y2="18.3545" gradientUnits="userSpaceOnUse">
<stop stop-color="#B139FE"/>
<stop offset="1" stop-color="#1E61EB"/>
</linearGradient>
<linearGradient id="paint1_linear_388_15781" x1="15.2273" y1="64.6455" x2="49.9455" y2="18.3545" gradientUnits="userSpaceOnUse">
<stop stop-color="#B139FE"/>
<stop offset="1" stop-color="#1E61EB"/>
</linearGradient>
</defs>
</svg>
