<svg width="16" height="16" viewBox="0 0 16 16" fill="none" xmlns="http://www.w3.org/2000/svg">
<path fill-rule="evenodd" clip-rule="evenodd" d="M4.20975 3.40829H15.1159C15.3645 3.40497 15.6027 3.50787 15.7707 3.69114C15.9387 3.87442 16.0205 4.12066 15.9956 4.36803L15.2685 11.3479C15.2277 11.7888 14.8606 12.1276 14.4179 12.1332H5.21312C4.7899 12.1315 4.43001 11.8239 4.36244 11.4061L2.90829 4.29532L2.34845 1.95415H0.727073C0.325522 1.95415 0 1.62863 0 1.22707C0 0.825522 0.325522 0.5 0.727073 0.5H2.79923C3.19507 0.507287 3.53728 0.778079 3.63537 1.16164L4.20975 3.40829ZM5.69289 10.679H13.8943L14.4759 4.86244H4.52958L5.69289 10.679Z" fill="white"/>
<path d="M6.91483 15.0414C7.51716 15.0414 8.00544 14.5532 8.00544 13.9508C8.00544 13.3485 7.51716 12.8602 6.91483 12.8602C6.3125 12.8602 5.82422 13.3485 5.82422 13.9508C5.82422 14.5532 6.3125 15.0414 6.91483 15.0414Z" fill="white"/>
<path d="M12.0027 15.0414C12.605 15.0414 13.0933 14.5532 13.0933 13.9508C13.0933 13.3485 12.605 12.8602 12.0027 12.8602C11.4004 12.8602 10.9121 13.3485 10.9121 13.9508C10.9121 14.5532 11.4004 15.0414 12.0027 15.0414Z" fill="white"/>
</svg>

