<svg width="15" height="15" viewBox="0 0 15 15" fill="none" xmlns="http://www.w3.org/2000/svg">
<path d="M14.3175 8.18159C13.9409 8.18159 13.6357 8.48685 13.6357 8.86339V12.9542C13.6357 13.3307 13.3304 13.636 12.9539 13.636H2.04509C1.66855 13.636 1.36329 13.3307 1.36329 12.9542V2.0454C1.36329 1.66885 1.66855 1.3636 2.04509 1.3636H6.13589C6.51244 1.3636 6.81769 1.05835 6.81769 0.681799C6.81769 0.305252 6.51244 0 6.13589 0H2.04509C0.915451 0 -0.000305176 0.915756 -0.000305176 2.0454V12.9542C-0.000305176 14.0838 0.915451 14.9996 2.04509 14.9996H12.9539C14.0835 14.9996 14.9993 14.0838 14.9993 12.9542V8.86339C14.9993 8.48685 14.694 8.18159 14.3175 8.18159Z" fill="#C5CFE4"/>
<path d="M12.9546 0H10.2274C9.85084 0 9.54559 0.305252 9.54559 0.681799C9.54559 1.05835 9.85084 1.3636 10.2274 1.3636H12.4841L5.93887 7.91569C5.72665 8.0773 5.62816 8.34782 5.68682 8.60804C5.74547 8.86826 5.9505 9.07037 6.21153 9.12531C6.47256 9.18024 6.74165 9.0779 6.90021 8.86339L13.6364 2.14085V4.7726C13.6364 5.14914 13.9416 5.4544 14.3182 5.4544C14.6947 5.4544 15 5.14914 15 4.7726V2.0454C15 0.915756 14.0842 0 12.9546 0Z" fill="#C5CFE4"/>
</svg>
