<svg width="14" height="15" viewBox="0 0 14 15" fill="none" xmlns="http://www.w3.org/2000/svg">
<path d="M0.27544 14.1967C-0.0918132 13.8273 -0.0918132 13.2306 0.27544 12.8612L12.3333 0.803287C12.5648 0.532978 12.9283 0.415235 13.2743 0.498467C13.6203 0.5817 13.8905 0.85186 13.9737 1.19787C14.0569 1.54389 13.9392 1.90736 13.6689 2.13884L1.61099 14.1967C1.24155 14.564 0.644884 14.564 0.27544 14.1967Z" fill="#292C33"/>
<path d="M0.27544 0.803394C0.644884 0.436141 1.24155 0.436141 1.61099 0.803394L13.6689 12.8613C13.9392 13.0928 14.0569 13.4562 13.9737 13.8022C13.8905 14.1483 13.6203 14.4184 13.2743 14.5017C12.9283 14.5849 12.5648 14.4671 12.3333 14.1968L0.27544 2.13895C-0.0918132 1.7695 -0.0918132 1.17284 0.27544 0.803394Z" fill="#292C33"/>
</svg>
