<svg width="42" height="52" viewBox="0 0 42 52" fill="none" xmlns="http://www.w3.org/2000/svg">
<path d="M11.8794 50.0881H11.0594L8.16942 43.0881H9.69942L11.4494 47.5581L13.1994 43.0881H14.7294L11.8794 50.0881ZM16.2935 44.6381C16.0868 44.6381 15.9101 44.5748 15.7635 44.4481C15.6235 44.3215 15.5535 44.1648 15.5535 43.9781C15.5535 43.7915 15.6235 43.6348 15.7635 43.5081C15.9101 43.3815 16.0868 43.3181 16.2935 43.3181C16.5068 43.3181 16.6835 43.3815 16.8235 43.5081C16.9701 43.6348 17.0435 43.7915 17.0435 43.9781C17.0435 44.1648 16.9701 44.3215 16.8235 44.4481C16.6835 44.5748 16.5068 44.6381 16.2935 44.6381ZM15.6635 50.0881V45.0881H16.9335V50.0881H15.6635ZM23.4657 50.0881H22.6157L22.5457 49.3781C22.139 49.8915 21.5857 50.1481 20.8857 50.1481C20.1857 50.1481 19.6023 49.9015 19.1357 49.4081C18.6757 48.9148 18.4457 48.3081 18.4457 47.5881C18.4457 46.8681 18.6757 46.2615 19.1357 45.7681C19.6023 45.2681 20.1857 45.0181 20.8857 45.0181C21.4323 45.0181 21.869 45.2048 22.1957 45.5781V43.0881H23.4657V50.0881ZM21.0057 48.9181C21.3523 48.9181 21.6523 48.7948 21.9057 48.5481C22.1657 48.3015 22.2957 47.9815 22.2957 47.5881C22.2957 47.1948 22.1657 46.8748 21.9057 46.6281C21.6523 46.3748 21.3523 46.2481 21.0057 46.2481C20.659 46.2481 20.3557 46.3748 20.0957 46.6281C19.8423 46.8748 19.7157 47.1948 19.7157 47.5881C19.7157 47.9815 19.8423 48.3015 20.0957 48.5481C20.349 48.7948 20.6523 48.9181 21.0057 48.9181ZM27.3914 45.0181C28.4514 45.0181 29.1848 45.4681 29.5914 46.3681C29.6914 46.5881 29.7481 46.8548 29.7614 47.1681C29.7748 47.4748 29.7448 47.7315 29.6714 47.9381H26.1814C26.1814 48.2648 26.2981 48.5215 26.5314 48.7081C26.7714 48.8948 27.0681 48.9881 27.4214 48.9881C27.9748 48.9881 28.4781 48.8715 28.9314 48.6381L29.6014 49.3681C28.9014 49.8881 28.1748 50.1481 27.4214 50.1481C26.6681 50.1481 26.0548 49.9081 25.5814 49.4281C25.1081 48.9415 24.8714 48.3281 24.8714 47.5881C24.8714 46.8548 25.1014 46.2448 25.5614 45.7581C26.0214 45.2648 26.6314 45.0181 27.3914 45.0181ZM27.3914 46.1781C27.0648 46.1781 26.7914 46.2748 26.5714 46.4681C26.3581 46.6615 26.2448 46.8848 26.2314 47.1381H28.5214C28.5214 46.9915 28.4814 46.8581 28.4014 46.7381C28.2014 46.3648 27.8648 46.1781 27.3914 46.1781ZM33.3787 45.0181C34.092 45.0181 34.6987 45.2715 35.1987 45.7781C35.6987 46.2781 35.9487 46.8815 35.9487 47.5881C35.9487 48.2948 35.6987 48.8981 35.1987 49.3981C34.6987 49.8981 34.092 50.1481 33.3787 50.1481C32.6654 50.1481 32.0587 49.8981 31.5587 49.3981C31.0654 48.8981 30.8187 48.2948 30.8187 47.5881C30.8187 46.8748 31.0687 46.2681 31.5687 45.7681C32.0687 45.2681 32.672 45.0181 33.3787 45.0181ZM34.2787 46.6281C34.0254 46.3748 33.7254 46.2481 33.3787 46.2481C33.032 46.2481 32.7287 46.3748 32.4687 46.6281C32.2154 46.8748 32.0887 47.1948 32.0887 47.5881C32.0887 47.9815 32.2154 48.3015 32.4687 48.5481C32.722 48.7948 33.0254 48.9181 33.3787 48.9181C33.7254 48.9181 34.0254 48.7948 34.2787 48.5481C34.5387 48.3015 34.6687 47.9815 34.6687 47.5881C34.6687 47.1948 34.5387 46.8748 34.2787 46.6281Z" fill="white"/>
<path d="M33.4121 13.3372C33.9099 13.0601 34.5544 13.2305 34.8115 13.7375C36.436 16.9414 36.8127 20.6154 35.8492 24.0821C34.794 27.879 32.2175 31.1162 28.6865 33.0816C25.1556 35.047 20.9594 35.5796 17.0211 34.5622C13.4253 33.6333 10.3135 31.4818 8.24776 28.5235C7.92085 28.0553 8.09008 27.432 8.58791 27.1549C9.08573 26.8778 9.72321 27.0523 10.0553 27.517C11.8412 30.0158 14.4975 31.8326 17.5599 32.6237C20.9649 33.5033 24.5929 33.0428 27.6457 31.3435C30.6985 29.6443 32.9261 26.8454 33.8385 23.5626C34.659 20.6102 34.3553 17.4839 33.0036 14.7435C32.7522 14.2338 32.9142 13.6143 33.4121 13.3372Z" fill="#E2E3F3" fill-opacity="0.65"/>
<path d="M33.4121 13.3372C33.9099 13.0601 34.5544 13.2305 34.8115 13.7375C36.436 16.9414 36.8127 20.6154 35.8492 24.0821C34.794 27.879 32.2175 31.1162 28.6865 33.0816C25.1556 35.047 20.9594 35.5796 17.0211 34.5622C13.4253 33.6333 10.3135 31.4818 8.24776 28.5235C7.92085 28.0553 8.09008 27.432 8.58791 27.1549C9.08573 26.8778 9.72321 27.0523 10.0553 27.517C11.8412 30.0158 14.4975 31.8326 17.5599 32.6237C20.9649 33.5033 24.5929 33.0428 27.6457 31.3435C30.6985 29.6443 32.9261 26.8454 33.8385 23.5626C34.659 20.6102 34.3553 17.4839 33.0036 14.7435C32.7522 14.2338 32.9142 13.6143 33.4121 13.3372Z" fill="#E2E3F3" fill-opacity="0.65"/>
<path d="M6.1978 19.8533C5.60408 19.8533 5.11847 19.3712 5.1641 18.7792C5.43822 15.2228 7.06676 11.8627 9.77335 9.32452C12.7511 6.53213 16.7897 4.96338 21.0008 4.96338C25.212 4.96338 29.2506 6.53213 32.2283 9.32452C34.9349 11.8627 36.5635 15.2228 36.8376 18.7792C36.8832 19.3712 36.3976 19.8532 35.8039 19.8532C35.2102 19.8532 34.7338 19.3709 34.6811 18.7795C34.4115 15.7585 33.0113 12.9101 30.708 10.7502C28.1335 8.33595 24.6417 6.97963 21.0008 6.97963C17.3599 6.97963 13.8682 8.33595 11.2937 10.7502C8.99043 12.9101 7.59013 15.7585 7.32063 18.7795C7.26787 19.3709 6.79152 19.8533 6.1978 19.8533Z" fill="url(#paint0_linear_1715_35778)"/>
<path d="M20.9992 33.735C20.9992 34.2918 20.5473 34.7463 19.9915 34.7132C16.1482 34.4841 12.511 32.9509 9.77167 30.382C6.79396 27.5896 5.12109 23.8023 5.12109 19.8533C5.12109 15.9043 6.79395 12.117 9.77167 9.32456C12.511 6.75573 16.1482 5.22245 19.9915 4.99341C20.5473 4.96029 20.9992 5.41477 20.9992 5.97154C20.9992 6.52832 20.5472 6.97604 19.9918 7.01435C16.7192 7.24003 13.628 8.55964 11.292 10.7503C8.71749 13.1645 7.27115 16.439 7.27115 19.8533C7.27115 23.2676 8.71749 26.542 11.292 28.9563C13.628 31.1469 16.7192 32.4666 19.9918 32.6922C20.5472 32.7305 20.9992 33.1783 20.9992 33.735Z" fill="url(#paint1_linear_1715_35778)"/>
<path d="M28 20L17.5 26.0622L17.5 13.9378L28 20Z" stroke="#D9D9D9" stroke-width="2"/>
<defs>
<linearGradient id="paint0_linear_1715_35778" x1="29.6616" y1="30.1408" x2="14.5339" y2="8.63188" gradientUnits="userSpaceOnUse">
<stop stop-color="#B139FE"/>
<stop offset="1" stop-color="#1E61EB"/>
</linearGradient>
<linearGradient id="paint1_linear_1715_35778" x1="12.3384" y1="9.56575" x2="27.4661" y2="31.0747" gradientUnits="userSpaceOnUse">
<stop stop-color="#B139FE"/>
<stop offset="1" stop-color="#1E61EB"/>
</linearGradient>
</defs>
</svg>
