<svg width="42" height="41" viewBox="0 0 42 41" fill="none" xmlns="http://www.w3.org/2000/svg">
<path d="M33.4121 13.3372C33.9099 13.0601 34.5544 13.2305 34.8115 13.7375C36.436 16.9414 36.8127 20.6154 35.8492 24.0821C34.794 27.879 32.2175 31.1162 28.6865 33.0816C25.1556 35.047 20.9594 35.5796 17.0211 34.5622C13.4253 33.6333 10.3135 31.4818 8.24776 28.5235C7.92085 28.0553 8.09008 27.432 8.58791 27.1549V27.1549C9.08573 26.8778 9.72321 27.0523 10.0553 27.517C11.8412 30.0158 14.4975 31.8326 17.5599 32.6237C20.9649 33.5033 24.5929 33.0428 27.6457 31.3435C30.6985 29.6443 32.9261 26.8454 33.8385 23.5626C34.659 20.6102 34.3553 17.4839 33.0036 14.7435C32.7522 14.2338 32.9142 13.6143 33.4121 13.3372V13.3372Z" fill="#E2E3F3" fill-opacity="0.65"/>
<path d="M33.4121 13.3372C33.9099 13.0601 34.5544 13.2305 34.8115 13.7375C36.436 16.9414 36.8127 20.6154 35.8492 24.0821C34.794 27.879 32.2175 31.1162 28.6865 33.0816C25.1556 35.047 20.9594 35.5796 17.0211 34.5622C13.4253 33.6333 10.3135 31.4818 8.24776 28.5235C7.92085 28.0553 8.09008 27.432 8.58791 27.1549V27.1549C9.08573 26.8778 9.72321 27.0523 10.0553 27.517C11.8412 30.0158 14.4975 31.8326 17.5599 32.6237C20.9649 33.5033 24.5929 33.0428 27.6457 31.3435C30.6985 29.6443 32.9261 26.8454 33.8385 23.5626C34.659 20.6102 34.3553 17.4839 33.0036 14.7435C32.7522 14.2338 32.9142 13.6143 33.4121 13.3372V13.3372Z" fill="#E2E3F3" fill-opacity="0.65"/>
<path d="M6.1978 19.8533C5.60408 19.8533 5.11847 19.3712 5.1641 18.7792C5.43822 15.2228 7.06676 11.8627 9.77335 9.32452C12.7511 6.53213 16.7897 4.96338 21.0008 4.96338C25.212 4.96338 29.2506 6.53213 32.2283 9.32452C34.9349 11.8627 36.5635 15.2228 36.8376 18.7792C36.8832 19.3712 36.3976 19.8532 35.8039 19.8532V19.8532C35.2102 19.8532 34.7338 19.3709 34.6811 18.7795C34.4115 15.7585 33.0113 12.9101 30.708 10.7502C28.1335 8.33595 24.6417 6.97963 21.0008 6.97963C17.3599 6.97963 13.8682 8.33595 11.2937 10.7502C8.99042 12.9101 7.59013 15.7585 7.32063 18.7795C7.26787 19.3709 6.79153 19.8533 6.1978 19.8533V19.8533Z" fill="url(#paint0_linear_2987_39555)"/>
<path d="M20.9992 33.735C20.9992 34.2918 20.5473 34.7463 19.9915 34.7132C16.1482 34.4841 12.511 32.9509 9.77167 30.382C6.79396 27.5896 5.12109 23.8023 5.12109 19.8533C5.12109 15.9043 6.79395 12.117 9.77167 9.32456C12.511 6.75573 16.1482 5.22245 19.9915 4.99341C20.5473 4.96029 20.9992 5.41477 20.9992 5.97154V5.97154C20.9992 6.52832 20.5472 6.97604 19.9918 7.01435C16.7192 7.24003 13.628 8.55964 11.292 10.7503C8.71749 13.1645 7.27115 16.439 7.27115 19.8533C7.27115 23.2676 8.71749 26.542 11.292 28.9563C13.628 31.1469 16.7192 32.4666 19.9918 32.6922C20.5472 32.7305 20.9992 33.1783 20.9992 33.735V33.735Z" fill="url(#paint1_linear_2987_39555)"/>
<path d="M28 20L17.5 26.0622L17.5 13.9378L28 20Z" stroke="#D9D9D9" stroke-width="2"/>
<defs>
<linearGradient id="paint0_linear_2987_39555" x1="29.6616" y1="30.1408" x2="14.5339" y2="8.63188" gradientUnits="userSpaceOnUse">
<stop stop-color="#B139FE"/>
<stop offset="1" stop-color="#1E61EB"/>
</linearGradient>
<linearGradient id="paint1_linear_2987_39555" x1="12.3384" y1="9.56575" x2="27.4661" y2="31.0747" gradientUnits="userSpaceOnUse">
<stop stop-color="#B139FE"/>
<stop offset="1" stop-color="#1E61EB"/>
</linearGradient>
</defs>
</svg>
