<svg width="125" height="125" viewBox="0 0 125 125" fill="none" xmlns="http://www.w3.org/2000/svg">
<g opacity="0.45" filter="url(#filter0_f_501_55372)">
<circle cx="62.5" cy="62.5" r="27.5" fill="url(#paint0_linear_501_55372)"/>
</g>
<circle cx="62" cy="60" r="25" fill="url(#paint1_linear_501_55372)"/>
<path fill-rule="evenodd" clip-rule="evenodd" d="M68.5455 51H55.4545C54.0989 51 53 52.0989 53 53.4545V66.5455C53 67.9011 54.0989 69 55.4545 69H68.5455C69.9011 69 71 67.9011 71 66.5455V53.4545C71 52.0989 69.9011 51 68.5455 51ZM69.3638 66.5455C69.3638 66.9973 68.9975 67.3636 68.5456 67.3636H55.4547C55.0028 67.3636 54.6365 66.9973 54.6365 66.5455V53.4545C54.6365 53.0027 55.0028 52.6364 55.4547 52.6364H61.2393C61.2041 52.725 61.1847 52.8192 61.182 52.9145V56.1873C61.182 56.6391 61.5483 57.0055 62.0002 57.0055C62.452 57.0055 62.8183 56.6391 62.8183 56.1873V52.9145C62.8156 52.8192 62.7962 52.725 62.7611 52.6364H68.5456C68.9975 52.6364 69.3638 53.0027 69.3638 53.4545V66.5455Z" fill="white"/>
<path fill-rule="evenodd" clip-rule="evenodd" d="M63.5877 63.2728H65.2241C65.6759 63.2728 66.0423 62.9065 66.0423 62.4547C66.0423 62.0028 65.6759 61.6365 65.2241 61.6365H63.5877C63.1358 61.6365 62.7695 62.0028 62.7695 62.4547C62.7695 62.9065 63.1358 63.2728 63.5877 63.2728Z" fill="white"/>
<path fill-rule="evenodd" clip-rule="evenodd" d="M66.8604 64.0908H63.5877C63.1358 64.0908 62.7695 64.4571 62.7695 64.909C62.7695 65.3609 63.1358 65.7272 63.5877 65.7272H66.8604C67.3123 65.7272 67.6786 65.3609 67.6786 64.909C67.6786 64.4571 67.3123 64.0908 66.8604 64.0908Z" fill="white"/>
<defs>
<filter id="filter0_f_501_55372" x="0" y="0" width="125" height="125" filterUnits="userSpaceOnUse" color-interpolation-filters="sRGB">
<feFlood flood-opacity="0" result="BackgroundImageFix"/>
<feBlend mode="normal" in="SourceGraphic" in2="BackgroundImageFix" result="shape"/>
<feGaussianBlur stdDeviation="17.5" result="effect1_foregroundBlur_501_55372"/>
</filter>
<linearGradient id="paint0_linear_501_55372" x1="35" y1="62.5" x2="90" y2="62.5" gradientUnits="userSpaceOnUse">
<stop stop-color="#8CD23C"/>
<stop offset="1" stop-color="#417A00"/>
</linearGradient>
<linearGradient id="paint1_linear_501_55372" x1="37" y1="60" x2="87" y2="60" gradientUnits="userSpaceOnUse">
<stop stop-color="#8CD23C"/>
<stop offset="1" stop-color="#417A00"/>
</linearGradient>
</defs>
</svg>


