<svg width="21" height="11" viewBox="0 0 21 11" fill="none" xmlns="http://www.w3.org/2000/svg">
<path fill-rule="evenodd" clip-rule="evenodd" d="M15.8216 0.694128C15.994 0.895687 16.0793 1.15748 16.0587 1.42191C16.038 1.68634 15.9132 1.93174 15.7116 2.10413L6.12163 10.3341C5.62703 10.7557 4.88666 10.707 4.45163 10.2241L0.26163 5.61413C0.020476 5.34975 -0.0613165 4.9768 0.0470632 4.63577C0.155443 4.29474 0.437529 4.03743 0.787063 3.96077C1.1366 3.88411 1.50048 3.99975 1.74163 4.26413L5.41163 8.26413L14.4116 0.554128C14.617 0.385221 14.8811 0.305042 15.1457 0.331312C15.4103 0.357583 15.6535 0.48814 15.8216 0.694128Z" fill="#8CD23C"/>
<path fill-rule="evenodd" clip-rule="evenodd" d="M20.6477 0.694128C20.8201 0.895687 20.9054 1.15748 20.8848 1.42191C20.8641 1.68634 20.7393 1.93174 20.5377 2.10413L10.9477 10.3341C10.4531 10.7557 9.308 10.817 8.87297 10.3341L7.1355 8.29883C6.89435 8.03445 7.02714 7.63986 7.13552 7.29883C7.2439 6.95779 7.28598 6.87549 7.63552 6.79883C7.98505 6.72217 8.39436 6.53445 8.63552 6.79883L10.2377 8.26413L19.2377 0.554128C19.4431 0.385221 19.7072 0.305042 19.9718 0.331312C20.2364 0.357583 20.4796 0.48814 20.6477 0.694128Z" fill="#8CD23C"/>
</svg>
