<svg width="12" height="14" viewBox="0 0 12 14" fill="none" xmlns="http://www.w3.org/2000/svg">
<path d="M0.236091 12.74C-0.078697 12.4234 -0.078697 11.912 0.236091 11.5953L10.5714 1.25995C10.7698 1.02826 11.0814 0.927337 11.378 0.998679C11.6746 1.07002 11.9061 1.30159 11.9775 1.59817C12.0488 1.89475 11.9479 2.2063 11.7162 2.40471L1.38085 12.74C1.06419 13.0548 0.552758 13.0548 0.236091 12.74Z" fill="#C5CFE4"/>
<path d="M0.236091 1.25995C0.552758 0.94516 1.06419 0.94516 1.38085 1.25995L11.7162 11.5953C11.9479 11.7937 12.0488 12.1052 11.9775 12.4018C11.9061 12.6984 11.6746 12.93 11.378 13.0013C11.0814 13.0727 10.7698 12.9717 10.5714 12.74L0.236091 2.40471C-0.078697 2.08804 -0.078697 1.57661 0.236091 1.25995Z" fill="#C5CFE4"/>
</svg>
