<svg width="100" height="100" viewBox="0 0 100 100" fill="none" xmlns="http://www.w3.org/2000/svg">
<circle cx="50" cy="50" r="49" stroke="url(#paint0_linear_437_36618)" stroke-width="2"/>
<path fill-rule="evenodd" clip-rule="evenodd" d="M67.2189 39.7373C67.6086 40.1716 67.8098 40.7429 67.7783 41.3255C67.7468 41.9081 67.4851 42.4543 67.0508 42.844L46.3913 61.4459C45.3256 62.399 43.6948 62.3306 42.7128 61.2914L33.2566 51.3724C32.7124 50.8036 32.513 49.9877 32.7335 49.232C32.954 48.4764 33.5609 47.8957 34.3256 47.7088C35.0903 47.5219 35.8966 47.7572 36.4408 48.326L44.7214 56.9307L64.1107 39.5033C64.5534 39.1211 65.1301 38.9309 65.7134 38.9748C66.2966 39.0187 66.8384 39.2931 67.2189 39.7373Z" fill="#80C433"/>
<defs>
<linearGradient id="paint0_linear_437_36618" x1="-3.72529e-07" y1="50" x2="100" y2="50" gradientUnits="userSpaceOnUse">
<stop stop-color="#8CD23C"/>
<stop offset="1" stop-color="#417A00"/>
</linearGradient>
</defs>
</svg>

