<svg width="82" height="90" viewBox="0 0 82 90" fill="none" xmlns="http://www.w3.org/2000/svg">
<circle opacity="0.25" cx="33.5" cy="33.5" r="32.5" stroke="white" stroke-width="2"/>
<path d="M31.9384 65.4457C31.8975 66.2821 32.5426 66.9968 33.3799 66.9998C39.4801 67.0217 45.4813 65.377 50.7294 62.2297C56.4116 58.8221 60.9557 53.806 63.7871 47.8158C66.6185 41.8255 67.61 35.1302 66.6362 28.5765C65.6625 22.0228 62.7671 15.905 58.3164 10.9968C53.8657 6.08855 48.0595 2.61034 41.632 1.00198C35.2045 -0.606368 28.4444 -0.272627 22.2066 1.961C15.9687 4.19464 10.5333 8.22784 6.58772 13.5506C2.94356 18.4666 0.721389 24.2788 0.148219 30.3521C0.0695446 31.1857 0.717942 31.8975 1.55428 31.9384C2.39062 31.9792 3.09784 31.3337 3.18027 30.5004C3.72178 25.0263 5.73672 19.7905 9.0237 15.3563C12.6122 10.5154 17.5556 6.84722 23.2288 4.81577C28.902 2.78432 35.0502 2.48078 40.8959 3.94356C46.7416 5.40633 52.0223 8.56971 56.0702 13.0337C60.118 17.4976 62.7513 23.0617 63.6369 29.0222C64.5225 34.9827 63.6208 41.072 61.0457 46.52C58.4705 51.968 54.3377 56.5301 49.1699 59.6293C44.4362 62.4681 39.0288 63.9627 33.528 63.9677C32.6907 63.9685 31.9792 64.6094 31.9384 65.4457Z" fill="url(#paint0_linear_729_39568)"/>
<defs>
<linearGradient id="paint0_linear_729_39568" x1="15.2273" y1="56.6455" x2="49.9455" y2="10.3545" gradientUnits="userSpaceOnUse">
<stop stop-color="#B139FE"/>
<stop offset="1" stop-color="#1E61EB"/>
</linearGradient>
</defs>
</svg>
