<svg width="180" height="179" viewBox="0 0 180 179" fill="none" xmlns="http://www.w3.org/2000/svg">
<path d="M37.4434 58.7638C35.3287 57.5429 32.6098 58.262 31.5347 60.4544C24.6038 74.5879 22.9908 90.8051 27.0906 106.106C31.5732 122.835 42.5178 137.098 57.5167 145.758C72.5157 154.418 90.3403 156.764 107.069 152.282C122.37 148.182 135.608 138.676 144.383 125.607C145.744 123.58 145.007 120.866 142.893 119.645V119.645C140.778 118.424 138.088 119.16 136.705 121.173C129.119 132.217 117.816 140.248 104.781 143.74C90.317 147.616 74.906 145.587 61.9381 138.1C48.9701 130.613 39.5076 118.281 35.632 103.817C32.1393 90.7824 33.442 76.9782 39.2135 64.8863C40.2654 62.6826 39.5581 59.9847 37.4434 58.7638V58.7638Z" fill="#E2E3F3" fill-opacity="0.65"/>
<path d="M150.94 89.3955C153.39 89.3955 155.391 87.4074 155.225 84.9637C154.157 69.2108 147.425 54.3149 136.19 43.08C123.907 30.7964 107.247 23.8955 89.875 23.8955C72.5033 23.8955 55.8431 30.7964 43.5595 43.08C32.3247 54.3149 25.5926 69.2108 24.525 84.9637C24.3594 87.4073 26.3605 89.3955 28.8097 89.3955V89.3955C31.2589 89.3955 33.2263 87.4067 33.4178 84.965C34.4687 71.5669 40.2601 58.9227 49.8311 49.3516C60.4514 38.7313 74.8556 32.7649 89.875 32.7649C104.894 32.7649 119.299 38.7313 129.919 49.3516C139.49 58.9227 145.281 71.5669 146.332 84.965C146.524 87.4068 148.491 89.3955 150.94 89.3955V89.3955Z" fill="url(#paint0_linear_2872_55571)"/>
<path d="M89.875 150.461C89.875 152.91 91.8631 154.911 94.3067 154.746C110.06 153.678 124.956 146.946 136.19 135.711C148.474 123.427 155.375 106.767 155.375 89.3955C155.375 72.0238 148.474 55.3637 136.191 43.08C124.956 31.8452 110.06 25.1132 94.3068 24.0455C91.8632 23.8799 89.875 25.881 89.875 28.3302V28.3302C89.875 30.7794 91.8638 32.7468 94.3055 32.9384C107.704 33.9893 120.348 39.7806 129.919 49.3516C140.539 59.9719 146.506 74.3762 146.506 89.3955C146.506 104.415 140.539 118.819 129.919 129.439C120.348 139.01 107.704 144.802 94.3055 145.853C91.8637 146.044 89.875 148.012 89.875 150.461V150.461Z" fill="url(#paint1_linear_2872_55571)"/>
<defs>
<linearGradient id="paint0_linear_2872_55571" x1="54.1477" y1="134.65" x2="122.03" y2="44.141" gradientUnits="userSpaceOnUse">
<stop stop-color="#339CFC"/>
<stop offset="1" stop-color="#1E61EB"/>
</linearGradient>
<linearGradient id="paint1_linear_2872_55571" x1="125.602" y1="44.141" x2="57.7205" y2="134.65" gradientUnits="userSpaceOnUse">
<stop stop-color="#339CFC"/>
<stop offset="1" stop-color="#1E61EB"/>
</linearGradient>
</defs>
</svg>

