<svg width="10" height="5" viewBox="0 0 10 5" fill="none" xmlns="http://www.w3.org/2000/svg">
<path fill-rule="evenodd" clip-rule="evenodd" d="M5.49042 4.9791C5.49042 4.9791 5.67089 4.96153 5.76333 4.87451C5.84795 4.79478 5.84501 4.64432 5.84501 4.64432C5.84501 4.64432 5.83376 3.94174 6.20597 3.83801C6.57279 3.73599 7.0438 4.51743 7.54366 4.81793C7.92124 5.04512 8.20786 4.99539 8.20786 4.99539L9.54359 4.9791C9.54359 4.9791 10.242 4.94138 9.9109 4.45999C9.88351 4.42056 9.71771 4.10378 8.91803 3.45307C8.0802 2.77193 8.19269 2.8821 9.20122 1.70371C9.81553 0.986133 10.0611 0.548043 9.98427 0.360718C9.91139 0.181538 9.45946 0.22912 9.45946 0.22912L7.95597 0.237264C7.95597 0.237264 7.84446 0.223976 7.7618 0.26727C7.6811 0.309708 7.62876 0.408728 7.62876 0.408728C7.62876 0.408728 7.39106 0.963843 7.07363 1.43623C6.40405 2.43243 6.13652 2.48516 6.02696 2.42343C5.77214 2.27897 5.83572 1.84388 5.83572 1.53482C5.83572 0.569047 6.00299 0.166535 5.51047 0.0623709C5.34711 0.0276494 5.22679 0.00493046 4.80861 0.00107252C4.27207 -0.00364274 3.81818 0.00278716 3.56091 0.112953C3.38973 0.186254 3.25767 0.350002 3.33837 0.359432C3.43766 0.371006 3.66265 0.412586 3.78199 0.554901C3.93605 0.738796 3.93067 1.15117 3.93067 1.15117C3.93067 1.15117 4.0192 2.28797 3.72378 2.429C3.5213 2.52588 3.24349 2.32827 2.6463 1.42422C2.34061 0.961271 2.10975 0.449451 2.10975 0.449451C2.10975 0.449451 2.06525 0.35386 1.98552 0.302421C1.88917 0.240265 1.75467 0.220975 1.75467 0.220975L0.326004 0.22912C0.326004 0.22912 0.111289 0.234264 0.0325439 0.316138C-0.0373974 0.388581 0.0271638 0.539041 0.0271638 0.539041C0.0271638 0.539041 1.14574 2.8328 2.41251 3.9889C3.57412 5.04854 4.89273 4.9791 4.89273 4.9791H5.49042Z" fill="white"/>
</svg>
