<svg width="18" height="16" viewBox="0 0 18 16" fill="none" xmlns="http://www.w3.org/2000/svg">
<path fill-rule="evenodd" clip-rule="evenodd" d="M7.47819 9.14857L7.36365 5.79402L12.6736 0.475843C13.3119 -0.158614 14.3427 -0.158614 14.9809 0.475843L16.1591 1.62948C16.4664 1.93641 16.639 2.3529 16.639 2.78721C16.639 3.22151 16.4664 3.638 16.1591 3.94493L10.8327 9.26312L7.47819 9.14857ZM13.8276 1.82582C13.7816 1.81804 13.7346 1.81804 13.6885 1.82582H13.6722C13.6197 1.84512 13.5722 1.87586 13.5331 1.91582L9.00037 6.44855L9.08218 7.52855L10.1949 7.56946L14.7276 3.03673C14.8051 2.95992 14.8486 2.85536 14.8486 2.74628C14.8486 2.6372 14.8051 2.53263 14.7276 2.45582L14.1467 1.87491C14.1226 1.85382 14.0949 1.8372 14.0649 1.82582H14.0158H13.9095H13.8276Z" fill="#C5CFE4"/>
<path d="M17.1818 5.72038C16.7299 5.72038 16.3636 6.08669 16.3636 6.53856V13.084C16.3636 13.5359 15.9973 13.9022 15.5455 13.9022H2.45455C2.00268 13.9022 1.63636 13.5359 1.63636 13.084V4.9022C1.63636 4.45033 2.00268 4.08402 2.45455 4.08402H5.72727C6.17914 4.08402 6.54545 3.71771 6.54545 3.26584C6.54545 2.81397 6.17914 2.44765 5.72727 2.44765H2.45455C1.09894 2.44765 0 3.54659 0 4.9022V13.084C0 14.4396 1.09894 15.5386 2.45455 15.5386H15.5455C16.9011 15.5386 18 14.4396 18 13.084V6.53856C18 6.08669 17.6337 5.72038 17.1818 5.72038Z" fill="#C5CFE4"/>
</svg>
