<svg width="12" height="12" viewBox="0 0 12 12" fill="none" xmlns="http://www.w3.org/2000/svg">
<path fill-rule="evenodd" clip-rule="evenodd" d="M11.4195 5.25811L5.25986 11.4178C4.88799 11.7901 4.38347 11.9995 3.85723 12H0V8.14277C0.00046327 7.61653 0.209885 7.11201 0.582224 6.74014L6.74189 0.580477C7.51682 -0.193492 8.77221 -0.193492 9.54714 0.580477L11.4195 2.45286C12.1935 3.22779 12.1935 4.48318 11.4195 5.25811ZM1.48093 7.64656C1.3587 7.76979 1.28979 7.93612 1.28906 8.10969L1.32214 10.6768H3.85614C4.02971 10.676 4.19604 10.6071 4.31927 10.4849L10.4525 4.28554C10.709 4.02748 10.709 3.61071 10.4525 3.35266L8.58009 1.48028C8.32203 1.22375 7.90526 1.22375 7.64721 1.48028L1.48093 7.64656Z" fill="#C5CFE4"/>
</svg>
