<svg width="15" height="11" viewBox="0 0 15 11" fill="none" xmlns="http://www.w3.org/2000/svg">
<path fill-rule="evenodd" clip-rule="evenodd" d="M14.2438 9.625C14.3823 9.625 14.5176 9.66531 14.6327 9.74086C14.7478 9.8164 14.8376 9.92378 14.8906 10.0494C14.9436 10.175 14.9574 10.3132 14.9304 10.4466C14.9034 10.58 14.8367 10.7025 14.7388 10.7986C14.6409 10.8948 14.5162 10.9603 14.3804 10.9868C14.2446 11.0133 14.1039 10.9997 13.976 10.9477C13.8481 10.8956 13.7387 10.8075 13.6618 10.6944C13.5849 10.5814 13.5438 10.4485 13.5438 10.3125C13.5438 10.1302 13.6176 9.95531 13.7489 9.82637C13.8802 9.69744 14.0582 9.625 14.2438 9.625ZM14.2438 6.875C14.4295 6.875 14.6075 6.94744 14.7388 7.07637C14.8701 7.20531 14.9438 7.38016 14.9438 7.5625C14.9438 7.74484 14.8701 7.91969 14.7388 8.04863C14.6075 8.17756 14.4295 8.25 14.2438 8.25C13.6869 8.25 13.1527 8.46729 12.7589 8.85408C12.3651 9.24087 12.1438 9.76549 12.1438 10.3125C12.1438 10.4948 12.0701 10.6697 11.9388 10.7986C11.8075 10.9276 11.6295 11 11.4438 11C11.2582 11 11.0802 10.9276 10.9489 10.7986C10.8176 10.6697 10.7438 10.4948 10.7438 10.3125C10.7438 9.40082 11.1126 8.52648 11.769 7.88183C12.4254 7.23717 13.3156 6.875 14.2438 6.875ZM14.2438 4.125C14.4295 4.125 14.6075 4.19744 14.7388 4.32637C14.8701 4.45531 14.9438 4.63016 14.9438 4.8125C14.9438 4.99484 14.8701 5.16969 14.7388 5.29863C14.6075 5.42756 14.4295 5.5 14.2438 5.5C12.9443 5.5 11.6979 6.00702 10.779 6.90953C9.86008 7.81205 9.34385 9.03615 9.34385 10.3125C9.34385 10.4948 9.27009 10.6697 9.13881 10.7986C9.00754 10.9276 8.8295 11 8.64385 11C8.4582 11 8.28016 10.9276 8.14888 10.7986C8.01761 10.6697 7.94385 10.4948 7.94385 10.3125C7.94385 8.67147 8.6076 7.09766 9.78908 5.93728C10.9706 4.7769 12.573 4.125 14.2438 4.125ZM1.64385 0H14.2438C14.4295 0 14.6075 0.0724428 14.7388 0.201374C14.8701 0.330305 14.9438 0.505164 14.9438 0.6875V2.0625C14.9438 2.24484 14.8701 2.41969 14.7388 2.54863C14.6075 2.67756 14.4295 2.75 14.2438 2.75C14.0582 2.75 13.8802 2.67756 13.7489 2.54863C13.6176 2.41969 13.5438 2.24484 13.5438 2.0625V1.375H2.34385V9.625H5.84385C6.0295 9.625 6.20754 9.69744 6.33881 9.82637C6.47009 9.95531 6.54385 10.1302 6.54385 10.3125C6.54385 10.4948 6.47009 10.6697 6.33881 10.7986C6.20754 10.9276 6.0295 11 5.84385 11H1.64385C1.4582 11 1.28016 10.9276 1.14888 10.7986C1.01761 10.6697 0.943848 10.4948 0.943848 10.3125V0.6875C0.943848 0.505164 1.01761 0.330305 1.14888 0.201374C1.28016 0.0724428 1.4582 0 1.64385 0Z" fill="#C5CFE4"/>
</svg>
