<svg width="50" height="50" viewBox="0 0 50 50" fill="none" xmlns="http://www.w3.org/2000/svg">
<path fill-rule="evenodd" clip-rule="evenodd" d="M32.0161 34.9999C33.5605 34.9999 34.8125 33.728 34.8125 32.159C34.8125 30.59 33.5605 29.3181 32.0161 29.3181C30.4717 29.3181 29.2197 30.59 29.2197 32.159C29.2197 33.728 30.4717 34.9999 32.0161 34.9999ZM32.016 32.7272C31.7096 32.7211 31.4627 32.4702 31.4568 32.159C31.4568 31.8452 31.7071 31.5908 32.016 31.5908C32.3249 31.5908 32.5753 31.8452 32.5753 32.159C32.5753 32.4728 32.3249 32.7272 32.016 32.7272Z" fill="white"/>
<path d="M34.8111 26.3636C35.4289 26.3636 35.9297 26.8724 35.9297 27.5C35.9297 28.1276 35.4289 28.6364 34.8111 28.6364H24.5092L23.0327 34.1591C22.869 34.7647 22.2531 35.1209 21.6569 34.9545C21.0608 34.7882 20.7102 34.1625 20.8739 33.5568L22.1938 28.6364H20.4489C19.833 28.6382 19.2963 28.2104 19.1514 27.6023L16.601 17.2727H14.1179C13.5001 17.2727 12.9993 16.764 12.9993 16.1364C12.9993 15.5088 13.5001 15 14.1179 15H17.3057C17.9203 15.0023 18.4548 15.4283 18.6033 16.0341L21.1424 26.3636H34.8111Z" fill="white"/>
<path fill-rule="evenodd" clip-rule="evenodd" d="M34.0735 25.2273C34.7097 25.2307 35.2608 24.7799 35.3934 24.1477L36.9705 16.6477C37.0548 16.246 36.9562 15.827 36.7023 15.5073C36.4484 15.1876 36.0662 15.0013 35.6618 15H21.6463C21.2459 15.008 20.8699 15.1972 20.6211 15.516C20.3722 15.8348 20.2765 16.2498 20.36 16.6477L21.9371 24.1477C22.0697 24.7799 22.6208 25.2307 23.257 25.2273H34.0735ZM23.9618 22.9545L22.7649 17.2727H34.5545L33.3577 22.9545H23.9618Z" fill="white"/>
</svg>

