<svg width="55" height="55" viewBox="0 0 55 55" fill="none" xmlns="http://www.w3.org/2000/svg">
<circle cx="27.5" cy="27.5" r="26" stroke="#E2E3F3" stroke-opacity="0.65" stroke-width="3"/>
<mask id="path-2-inside-1_455_33032" fill="white">
<path d="M53.6439 27.5C54.3928 27.5 55.0035 26.8924 54.9666 26.1443C54.7216 21.1811 53.1356 16.3676 50.3654 12.2218C47.3437 7.69947 43.0488 4.17472 38.0238 2.09331C32.9988 0.0119029 27.4695 -0.532689 22.135 0.528405C16.8005 1.5895 11.9005 4.20862 8.05456 8.05456C4.20862 11.9005 1.5895 16.8005 0.528405 22.135C-0.532689 27.4695 0.011903 32.9988 2.09331 38.0238C4.17472 43.0488 7.69947 47.3437 12.2218 50.3654C16.3676 53.1356 21.1811 54.7216 26.1443 54.9666C26.8924 55.0035 27.5 54.3928 27.5 53.6439C27.5 52.8949 26.8924 52.2916 26.1445 52.2506C21.718 52.0082 17.4284 50.5823 13.7287 48.1102C9.65237 45.3865 6.47527 41.5152 4.59915 36.9858C2.72303 32.4565 2.23215 27.4725 3.18859 22.6642C4.14503 17.8558 6.50583 13.4391 9.97245 9.97245C13.4391 6.50583 17.8558 4.14503 22.6642 3.18859C27.4725 2.23215 32.4565 2.72303 36.9858 4.59915C41.5152 6.47527 45.3865 9.65237 48.1102 13.7287C50.5823 17.4284 52.0082 21.718 52.2506 26.1445C52.2916 26.8924 52.8949 27.5 53.6439 27.5Z"/>
</mask>
<path d="M53.6439 27.5C54.3928 27.5 55.0035 26.8924 54.9666 26.1443C54.7216 21.1811 53.1356 16.3676 50.3654 12.2218C47.3437 7.69947 43.0488 4.17472 38.0238 2.09331C32.9988 0.0119029 27.4695 -0.532689 22.135 0.528405C16.8005 1.5895 11.9005 4.20862 8.05456 8.05456C4.20862 11.9005 1.5895 16.8005 0.528405 22.135C-0.532689 27.4695 0.011903 32.9988 2.09331 38.0238C4.17472 43.0488 7.69947 47.3437 12.2218 50.3654C16.3676 53.1356 21.1811 54.7216 26.1443 54.9666C26.8924 55.0035 27.5 54.3928 27.5 53.6439C27.5 52.8949 26.8924 52.2916 26.1445 52.2506C21.718 52.0082 17.4284 50.5823 13.7287 48.1102C9.65237 45.3865 6.47527 41.5152 4.59915 36.9858C2.72303 32.4565 2.23215 27.4725 3.18859 22.6642C4.14503 17.8558 6.50583 13.4391 9.97245 9.97245C13.4391 6.50583 17.8558 4.14503 22.6642 3.18859C27.4725 2.23215 32.4565 2.72303 36.9858 4.59915C41.5152 6.47527 45.3865 9.65237 48.1102 13.7287C50.5823 17.4284 52.0082 21.718 52.2506 26.1445C52.2916 26.8924 52.8949 27.5 53.6439 27.5Z" stroke="url(#paint0_linear_455_33032)" stroke-width="6" mask="url(#path-2-inside-1_455_33032)"/>
<path d="M18.6928 24.56C19.7915 23.4613 21.1141 22.912 22.6608 22.912C24.2075 22.912 25.5248 23.4613 26.6128 24.56C27.7115 25.648 28.2608 26.9653 28.2608 28.512C28.2608 30.0587 27.7168 31.3813 26.6288 32.48C25.5408 33.568 24.2181 34.112 22.6608 34.112C21.1035 34.112 19.7808 33.568 18.6928 32.48C17.6048 31.3813 17.0608 30.0587 17.0608 28.512C17.0608 26.9653 17.6048 25.648 18.6928 24.56ZM25.0768 25.984C24.4261 25.3227 23.6208 24.992 22.6608 24.992C21.7008 24.992 20.8955 25.3227 20.2448 25.984C19.6048 26.6453 19.2848 27.488 19.2848 28.512C19.2848 29.5467 19.6048 30.3893 20.2448 31.04C20.8955 31.6907 21.7008 32.016 22.6608 32.016C23.6315 32.016 24.4368 31.6907 25.0768 31.04C25.7275 30.3893 26.0528 29.5467 26.0528 28.512C26.0528 27.488 25.7275 26.6453 25.0768 25.984ZM37.1083 32.224V34H34.9003V32.224H29.5083V30.928L35.7963 23.04H37.1083V30.144H38.1963V32.224H37.1083ZM34.8843 26.624L32.0843 30.144H34.8843V26.624Z" fill="black"/>
<defs>
<linearGradient id="paint0_linear_455_33032" x1="12.5" y1="46.5" x2="41" y2="8.5" gradientUnits="userSpaceOnUse">
<stop stop-color="#339CFC"/>
<stop offset="1" stop-color="#1E61EB"/>
</linearGradient>
</defs>
</svg>
