<svg width="17" height="11" viewBox="0 0 17 11" fill="none" xmlns="http://www.w3.org/2000/svg">
<path fill-rule="evenodd" clip-rule="evenodd" d="M15.8216 0.694067C15.994 0.895626 16.0793 1.15742 16.0587 1.42185C16.038 1.68628 15.9132 1.93168 15.7116 2.10407L6.12163 10.3341C5.62703 10.7557 4.88666 10.7069 4.45163 10.2241L0.26163 5.61407C0.020476 5.34969 -0.0613165 4.97674 0.0470632 4.63571C0.155443 4.29467 0.437529 4.03737 0.787063 3.96071C1.1366 3.88405 1.50048 3.99969 1.74163 4.26407L5.41163 8.26407L14.4116 0.554067C14.617 0.38516 14.8811 0.304981 15.1457 0.331251C15.4103 0.357522 15.6535 0.488079 15.8216 0.694067Z" fill="#B2B9D1"/>
</svg>
