<svg width="45" height="45" viewBox="0 0 45 45" fill="none" xmlns="http://www.w3.org/2000/svg">
<circle cx="22.5" cy="22.5" r="21.5" fill="white" stroke="#E2E5F4" stroke-width="2"/>
<path fill-rule="evenodd" clip-rule="evenodd" d="M27.8477 31.4288C29.1348 31.4288 30.1781 30.384 30.1781 29.0951C30.1781 27.8063 29.1348 26.7615 27.8477 26.7615C26.5607 26.7615 25.5174 27.8063 25.5174 29.0951C25.5174 30.384 26.5607 31.4288 27.8477 31.4288ZM27.8491 29.5618C27.5938 29.5568 27.388 29.3507 27.3831 29.095C27.3831 28.8372 27.5917 28.6283 27.8491 28.6283C28.1065 28.6283 28.3152 28.8372 28.3152 29.095C28.3152 29.3528 28.1065 29.5618 27.8491 29.5618Z" fill="url(#paint0_linear_472_33897)"/>
<path d="M30.1767 24.3347C30.6916 24.3347 31.1089 24.7526 31.1089 25.2681C31.1089 25.7837 30.6916 26.2016 30.1767 26.2016H21.5917L20.3613 30.7382C20.2249 31.2357 19.7116 31.5283 19.2148 31.3917C18.718 31.255 18.4259 30.741 18.5623 30.2435L19.6622 26.2016H18.2081C17.6948 26.2031 17.2476 25.8517 17.1268 25.3521L15.0015 16.8669H12.9322C12.4173 16.8669 12 16.449 12 15.9335C12 15.4179 12.4173 15 12.9322 15H15.5888C16.1009 15.0019 16.5463 15.3518 16.67 15.8495L18.786 24.3347H30.1767Z" fill="url(#paint1_linear_472_33897)"/>
<path fill-rule="evenodd" clip-rule="evenodd" d="M29.5612 23.4012C30.0914 23.404 30.5507 23.0337 30.6611 22.5144L31.9754 16.3535C32.0456 16.0235 31.9635 15.6793 31.7519 15.4167C31.5403 15.1541 31.2218 15.001 30.8848 15H19.2051C18.8714 15.0066 18.5581 15.162 18.3507 15.4239C18.1434 15.6857 18.0636 16.0267 18.1332 16.3535L19.4475 22.5144C19.5579 23.0337 20.0172 23.404 20.5474 23.4012H29.5612ZM21.1341 21.5342L20.1367 16.8668H29.9614L28.964 21.5342H21.1341Z" fill="url(#paint2_linear_472_33897)"/>
<defs>
<linearGradient id="paint0_linear_472_33897" x1="29.1189" y1="30.7075" x2="26.6994" y2="27.4861" gradientUnits="userSpaceOnUse">
<stop stop-color="#339CFC"/>
<stop offset="1" stop-color="#1E61EB"/>
</linearGradient>
<linearGradient id="paint1_linear_472_33897" x1="26.766" y1="28.8868" x2="18.6908" y2="16.3608" gradientUnits="userSpaceOnUse">
<stop stop-color="#339CFC"/>
<stop offset="1" stop-color="#1E61EB"/>
</linearGradient>
<linearGradient id="paint2_linear_472_33897" x1="28.8429" y1="22.1028" x2="25.431" y2="14.5809" gradientUnits="userSpaceOnUse">
<stop stop-color="#339CFC"/>
<stop offset="1" stop-color="#1E61EB"/>
</linearGradient>
</defs>
</svg>

