<svg width="13" height="11" viewBox="0 0 13 11" fill="none" xmlns="http://www.w3.org/2000/svg">
<path fill-rule="evenodd" clip-rule="evenodd" d="M12.8638 10.0893L7.46425 0.30986C7.41192 0.215796 7.33605 0.137551 7.24435 0.0831169C7.15265 0.0286824 7.04843 0 6.9423 0C6.83617 0 6.73194 0.0286824 6.64025 0.0831169C6.54855 0.137551 6.47267 0.215796 6.42035 0.30986L1.02081 10.0893C0.969537 10.1822 0.94301 10.2872 0.943868 10.3938C0.944726 10.5004 0.972937 10.6049 1.0257 10.697C1.07846 10.789 1.15394 10.8654 1.24465 10.9186C1.33535 10.9718 1.43812 10.9998 1.54276 11H9.34209C9.50121 11 9.65381 10.9356 9.76632 10.821C9.87883 10.7063 9.94204 10.5509 9.94204 10.3888C9.94204 10.2267 9.87883 10.0712 9.76632 9.9566C9.65381 9.84198 9.50121 9.77757 9.34209 9.77757H2.56868L6.9423 1.83178L11.8199 10.6638C11.8994 10.8049 12.0307 10.9079 12.1849 10.9503C12.339 10.9928 12.5034 10.971 12.6418 10.89C12.7802 10.8089 12.8814 10.6752 12.923 10.5181C12.9647 10.3611 12.9433 10.1937 12.8638 10.0526V10.0893ZM6.9423 7.94393C6.82364 7.94393 6.70764 7.97977 6.60898 8.04693C6.51032 8.11409 6.43343 8.20955 6.38802 8.32124C6.34261 8.43292 6.33073 8.55581 6.35388 8.67437C6.37702 8.79293 6.43417 8.90185 6.51807 8.98733C6.60197 9.07281 6.70888 9.13102 6.82526 9.1546C6.94164 9.17819 7.06227 9.1661 7.17189 9.11984C7.28152 9.07358 7.37521 8.99521 7.44114 8.8947C7.50706 8.79418 7.54225 8.67603 7.54225 8.55514C7.54225 8.39304 7.47904 8.23758 7.36653 8.12296C7.25401 8.00833 7.10141 7.94393 6.9423 7.94393ZM7.54225 4.88785C7.54225 4.72575 7.47904 4.57029 7.36653 4.45567C7.25401 4.34104 7.10141 4.27664 6.9423 4.27664C6.78318 4.27664 6.63058 4.34104 6.51807 4.45567C6.40556 4.57029 6.34235 4.72575 6.34235 4.88785V6.7215C6.34235 6.8836 6.40556 7.03906 6.51807 7.15368C6.63058 7.26831 6.78318 7.33271 6.9423 7.33271C7.10141 7.33271 7.25401 7.26831 7.36653 7.15368C7.47904 7.03906 7.54225 6.8836 7.54225 6.7215V4.88785Z" fill="#C5CFE4"/>
</svg>
