<svg width="136" height="52" viewBox="0 0 136 52" fill="none" xmlns="http://www.w3.org/2000/svg">
<path d="M10.9312 42.7236H6.52037V28.5962L4.21907 31.3449L1.37439 29.1715L8.31028 20.8292H10.9312V42.7236ZM75.9165 42.7236H73.1996L72.9759 40.4543C71.6761 42.095 69.9075 42.9154 67.6701 42.9154C65.4327 42.9154 63.5682 42.127 62.0767 40.5502C60.6064 38.9734 59.8712 37.0343 59.8712 34.733C59.8712 32.4317 60.6064 30.4926 62.0767 28.9158C63.5682 27.3176 65.4327 26.5186 67.6701 26.5186C69.4174 26.5186 70.8131 27.1152 71.8572 28.3085V20.3498H75.9165V42.7236ZM68.0537 38.984C69.1617 38.984 70.1206 38.5898 70.9303 37.8014C71.7613 37.013 72.1768 35.9902 72.1768 34.733C72.1768 33.4758 71.7613 32.453 70.9303 31.6646C70.1206 30.8548 69.1617 30.45 68.0537 30.45C66.9456 30.45 65.9761 30.8548 65.1451 31.6646C64.3353 32.453 63.9305 33.4758 63.9305 34.733C63.9305 35.9902 64.3353 37.013 65.1451 37.8014C65.9548 38.5898 66.9243 38.984 68.0537 38.984Z" fill="white"/>
<mask id="path-2-outside-1_2869_39555" maskUnits="userSpaceOnUse" x="32" y="19.7236" width="26" height="24" fill="black">
<rect fill="white" x="32" y="19.7236" width="26" height="24"/>
<path d="M49.8032 42.7236H47.0864L46.8626 40.4543C45.5628 42.095 43.7942 42.9154 41.5568 42.9154C39.3194 42.9154 37.455 42.127 35.9634 40.5502C34.4931 38.9734 33.7579 37.0343 33.7579 34.733C33.7579 32.4317 34.4931 30.4926 35.9634 28.9158C37.455 27.3176 39.3194 26.5186 41.5568 26.5186C43.7942 26.5186 45.5628 27.3496 46.8626 29.0117L47.0864 26.7423H49.8032V42.7236ZM41.9404 38.984C43.0484 38.984 44.0073 38.5898 44.817 37.8014C45.648 37.013 46.0636 35.9902 46.0636 34.733C46.0636 33.4758 45.648 32.453 44.817 31.6646C44.0073 30.8548 43.0484 30.45 41.9404 30.45C40.8323 30.45 39.8628 30.8548 39.0318 31.6646C38.2221 32.453 37.8172 33.4758 37.8172 34.733C37.8172 35.9902 38.2221 37.013 39.0318 37.8014C39.8415 38.5898 40.811 38.984 41.9404 38.984ZM54.5841 25.304C53.9235 25.304 53.3589 25.1016 52.8901 24.6967C52.4426 24.2919 52.2189 23.7911 52.2189 23.1945C52.2189 22.5978 52.4426 22.0971 52.8901 21.6922C53.3589 21.2874 53.9235 21.0849 54.5841 21.0849C55.266 21.0849 55.8306 21.2874 56.2781 21.6922C56.7469 22.0971 56.9813 22.5978 56.9813 23.1945C56.9813 23.7911 56.7469 24.2919 56.2781 24.6967C55.8306 25.1016 55.266 25.304 54.5841 25.304ZM52.5704 42.7236V26.7423H56.6297V42.7236H52.5704Z"/>
</mask>
<path d="M49.8032 42.7236V43.5227H50.6022V42.7236H49.8032ZM47.0864 42.7236L46.2911 42.802L46.3622 43.5227H47.0864V42.7236ZM46.8626 40.4543L47.6578 40.3759L47.4639 38.4085L46.2363 39.9581L46.8626 40.4543ZM35.9634 40.5502L35.3789 41.0951L35.3829 41.0993L35.9634 40.5502ZM35.9634 28.9158L35.3792 28.3706L35.3789 28.3708L35.9634 28.9158ZM46.8626 29.0117L46.2332 29.5039L47.4621 31.0753L47.6578 29.0901L46.8626 29.0117ZM47.0864 26.7423V25.9433H46.3622L46.2911 26.6639L47.0864 26.7423ZM49.8032 26.7423H50.6022V25.9433H49.8032V26.7423ZM44.817 37.8014L44.267 37.2216L44.2596 37.2289L44.817 37.8014ZM44.817 31.6646L44.252 32.2296L44.2594 32.237L44.267 32.2443L44.817 31.6646ZM39.0318 31.6646L39.5892 32.2371L39.5894 32.2369L39.0318 31.6646ZM39.0318 37.8014L39.5892 37.2289L39.5892 37.2289L39.0318 37.8014ZM49.8032 41.9246H47.0864V43.5227H49.8032V41.9246ZM47.8816 42.6452L47.6578 40.3759L46.0674 40.5327L46.2911 42.802L47.8816 42.6452ZM46.2363 39.9581C45.0997 41.3928 43.5695 42.1163 41.5568 42.1163V43.7145C44.0189 43.7145 46.0259 42.7972 47.489 40.9505L46.2363 39.9581ZM41.5568 42.1163C39.5314 42.1163 37.8794 41.4129 36.5439 40.0011L35.3829 41.0993C37.0306 42.8411 39.1074 43.7145 41.5568 43.7145V42.1163ZM36.5478 40.0052C35.2253 38.5869 34.557 36.847 34.557 34.733H32.9589C32.9589 37.2216 33.7609 39.3598 35.3789 41.0951L36.5478 40.0052ZM34.557 34.733C34.557 32.619 35.2253 30.879 36.5478 29.4607L35.3789 28.3708C33.7609 30.1062 32.9589 32.2444 32.9589 34.733H34.557ZM36.5475 29.461C37.884 28.029 39.535 27.3176 41.5568 27.3176V25.7195C39.1038 25.7195 37.0259 26.6063 35.3792 28.3706L36.5475 29.461ZM41.5568 27.3176C43.5655 27.3176 45.0951 28.0487 46.2332 29.5039L47.4921 28.5194C46.0305 26.6506 44.0229 25.7195 41.5568 25.7195V27.3176ZM47.6578 29.0901L47.8816 26.8207L46.2911 26.6639L46.0674 28.9333L47.6578 29.0901ZM47.0864 27.5414H49.8032V25.9433H47.0864V27.5414ZM49.0041 26.7423V42.7236H50.6022V26.7423H49.0041ZM41.9404 39.7831C43.2612 39.7831 44.4189 39.3043 45.3745 38.3739L44.2596 37.2289C43.5957 37.8753 42.8356 38.1849 41.9404 38.1849V39.7831ZM45.367 38.3811C46.3735 37.4262 46.8626 36.1857 46.8626 34.733H45.2645C45.2645 35.7946 44.9226 36.5997 44.267 37.2217L45.367 38.3811ZM46.8626 34.733C46.8626 33.2803 46.3735 32.0397 45.367 31.0849L44.267 32.2443C44.9226 32.8662 45.2645 33.6713 45.2645 34.733H46.8626ZM45.382 31.0995C44.4281 30.1456 43.2681 29.6509 41.9404 29.6509V31.2491C42.8287 31.2491 43.5865 31.5641 44.252 32.2296L45.382 31.0995ZM41.9404 29.6509C40.6134 29.6509 39.4466 30.1447 38.4741 31.0923L39.5894 32.2369C40.279 31.5649 41.0513 31.2491 41.9404 31.2491V29.6509ZM38.4743 31.0921C37.492 32.0485 37.0181 33.2868 37.0181 34.733H38.6163C38.6163 33.6647 38.9521 32.8574 39.5892 32.2371L38.4743 31.0921ZM37.0181 34.733C37.0181 36.1791 37.492 37.4174 38.4743 38.3739L39.5892 37.2289C38.9521 36.6085 38.6163 35.8012 38.6163 34.733H37.0181ZM38.4743 38.3739C39.4331 39.3075 40.6026 39.7831 41.9404 39.7831V38.1849C41.0194 38.1849 40.2499 37.8721 39.5892 37.2289L38.4743 38.3739ZM52.8901 24.6967L52.354 25.2893L52.3608 25.2954L52.3678 25.3015L52.8901 24.6967ZM52.8901 21.6922L52.3678 21.0875L52.3608 21.0935L52.354 21.0997L52.8901 21.6922ZM56.2781 21.6922L55.742 22.2848L55.7488 22.291L55.7558 22.297L56.2781 21.6922ZM56.2781 24.6967L55.7558 24.092L55.7488 24.098L55.742 24.1042L56.2781 24.6967ZM52.5704 42.7236H51.7714V43.5227H52.5704V42.7236ZM52.5704 26.7423V25.9433H51.7714V26.7423H52.5704ZM56.6297 26.7423H57.4288V25.9433H56.6297V26.7423ZM56.6297 42.7236V43.5227H57.4288V42.7236H56.6297ZM54.5841 24.5049C54.1015 24.5049 53.7259 24.3627 53.4124 24.092L52.3678 25.3015C52.9918 25.8404 53.7456 26.1031 54.5841 26.1031V24.5049ZM53.4262 24.1042C53.1439 23.8488 53.0179 23.5624 53.0179 23.1945H51.4198C51.4198 24.0198 51.7412 24.7349 52.354 25.2893L53.4262 24.1042ZM53.0179 23.1945C53.0179 22.8266 53.1439 22.5401 53.4262 22.2848L52.354 21.0997C51.7412 21.6541 51.4198 22.3691 51.4198 23.1945H53.0179ZM53.4124 22.297C53.7259 22.0262 54.1015 21.884 54.5841 21.884V20.2859C53.7456 20.2859 52.9918 20.5485 52.3678 21.0875L53.4124 22.297ZM54.5841 21.884C55.0955 21.884 55.4607 22.0303 55.742 22.2848L56.8142 21.0997C56.2005 20.5445 55.4364 20.2859 54.5841 20.2859V21.884ZM55.7558 22.297C56.0565 22.5567 56.1822 22.84 56.1822 23.1945H57.7804C57.7804 22.3557 57.4373 21.6375 56.8004 21.0875L55.7558 22.297ZM56.1822 23.1945C56.1822 23.5489 56.0565 23.8323 55.7558 24.092L56.8004 25.3015C57.4373 24.7514 57.7804 24.0333 57.7804 23.1945H56.1822ZM55.742 24.1042C55.4607 24.3587 55.0955 24.5049 54.5841 24.5049V26.1031C55.4364 26.1031 56.2005 25.8445 56.8142 25.2893L55.742 24.1042ZM53.3695 42.7236V26.7423H51.7714V42.7236H53.3695ZM52.5704 27.5414H56.6297V25.9433H52.5704V27.5414ZM55.8306 26.7423V42.7236H57.4288V26.7423H55.8306ZM56.6297 41.9246H52.5704V43.5227H56.6297V41.9246Z" fill="white" mask="url(#path-2-outside-1_2869_39555)"/>
<path opacity="0.35" d="M83.0936 25.678C83.4238 25.678 83.7062 25.7846 83.9406 25.9977C84.175 26.2001 84.2922 26.4558 84.2922 26.7648C84.2922 27.0631 84.175 27.3188 83.9406 27.5319C83.7062 27.7343 83.4238 27.8355 83.0936 27.8355C82.7526 27.8355 82.465 27.7343 82.2306 27.5319C81.9962 27.3188 81.879 27.0631 81.879 26.7648C81.879 26.4558 81.9962 26.2001 82.2306 25.9977C82.465 25.7846 82.7526 25.678 83.0936 25.678ZM91.6231 21.5868H90.808C90.0835 21.5868 89.5295 21.8159 89.146 22.274C88.7624 22.7215 88.5706 23.3341 88.5706 24.1119V27.7236H86.541V19.733H87.8994L88.1232 21.459C88.7731 20.2337 89.8278 19.6211 91.2875 19.6211H91.6231V21.5868ZM101.157 27.7236H99.7983L99.6544 26.4771C99.1004 27.3827 98.1895 27.8355 96.9216 27.8355C95.7923 27.8355 94.924 27.4892 94.3167 26.7967C93.72 26.0935 93.4217 25.1453 93.4217 23.952V19.733H95.4513V23.8242C95.4513 25.1879 96.048 25.8698 97.2413 25.8698C97.8379 25.8698 98.3013 25.6887 98.6316 25.3264C98.9619 24.9535 99.1271 24.3942 99.1271 23.6484V19.733H101.157V27.7236Z" fill="white"/>
<path d="M9.57332 9.57382C8.43671 8.88054 8.0803 7.37454 8.95673 6.37235C10.3606 4.76707 12.0788 3.44076 14.019 2.47627C16.6936 1.14667 19.6885 0.555037 22.6815 0.765028C25.6745 0.97502 28.5523 1.97869 31.0051 3.66802C33.4579 5.35736 35.3929 7.66839 36.6018 10.3524C37.8107 13.0364 38.2477 15.9918 37.8659 18.9005C37.484 21.8092 36.2978 24.5611 34.4348 26.8599C32.5717 29.1588 30.1025 30.9177 27.2928 31.9472C25.2224 32.7059 23.0248 33.0473 20.8312 32.9604C19.5329 32.9089 18.6865 31.6625 18.9289 30.386V30.386C19.1686 29.1244 20.3859 28.3164 21.67 28.2981C23.0118 28.2791 24.3462 28.0348 25.6136 27.5705C27.6088 26.8394 29.3623 25.5904 30.6853 23.9579C32.0082 22.3254 32.8506 20.3712 33.1218 18.3057C33.3929 16.2402 33.0826 14.1415 32.2241 12.2355C31.3656 10.3295 29.9916 8.68843 28.2498 7.48879C26.508 6.28916 24.4644 5.57643 22.339 5.42731C20.2136 5.2782 18.0868 5.69833 16.1876 6.6425C14.9933 7.2362 13.9174 8.02296 13.0027 8.96446C12.1017 9.89189 10.6772 10.2472 9.57332 9.57382V9.57382Z" fill="white"/>
<path d="M17 42.7236V42.7236C19.4853 42.7236 21.5 40.7089 21.5 38.2236V10.4736V10.4736C19.0147 10.4736 17 12.4884 17 14.9736V42.7236Z" fill="white"/>
</svg>

