<svg width="24" height="24" viewBox="0 0 24 24" fill="none" xmlns="http://www.w3.org/2000/svg">
<path fill-rule="evenodd" clip-rule="evenodd" d="M11.9996 4.15649L10.4023 9.08965C10.2253 9.62468 9.72706 9.98743 9.16354 9.99153H3.98047L8.16387 13.034C8.61887 13.3667 8.81119 13.9524 8.64198 14.49L7.04468 19.4232L11.2281 16.3699C11.6905 16.043 12.3087 16.043 12.7711 16.3699L16.9545 19.4232L15.3572 14.49C15.1879 13.9524 15.3803 13.3667 15.8353 13.034L20.0187 9.99153H14.8356C14.2721 9.98743 13.7738 9.62468 13.5969 9.08965L11.9996 4.15649ZM10.7613 0.89677C10.9372 0.361675 11.4367 0 12 0C12.5633 0 13.0628 0.361675 13.2387 0.89677L15.4771 7.81841H22.703C23.2663 7.82143 23.764 8.18587 23.9369 8.722C24.1099 9.25812 23.919 9.84469 23.4636 10.1763L17.6177 14.4249L19.8561 21.3031C20.0315 21.8413 19.8397 22.4312 19.3813 22.7632C18.9229 23.0953 18.3026 23.0936 17.8459 22.7591L12 18.4997L6.1541 22.7483C5.69906 23.0786 5.08354 23.08 4.627 22.7518C4.17046 22.4235 3.97574 21.8396 4.14389 21.3031L6.38228 14.4358L0.536383 10.1763C0.0810176 9.84469 -0.109887 9.25812 0.0630558 8.722C0.235999 8.18587 0.733682 7.82143 1.297 7.81841H8.52288L10.7613 0.89677Z" fill="white"/>
</svg>
