<svg width="136" height="42" viewBox="0 0 136 42" fill="none" xmlns="http://www.w3.org/2000/svg">
<path d="M10.9312 31.2764H6.52037V17.1489L4.21907 19.8977L1.37439 17.7242L8.31028 9.38197H10.9312V31.2764ZM75.9165 31.2764H73.1996L72.9759 29.007C71.6761 30.6478 69.9075 31.4681 67.6701 31.4681C65.4327 31.4681 63.5682 30.6797 62.0767 29.1029C60.6064 27.5261 59.8712 25.587 59.8712 23.2857C59.8712 20.9844 60.6064 19.0453 62.0767 17.4685C63.5682 15.8704 65.4327 15.0713 67.6701 15.0713C69.4174 15.0713 70.8131 15.668 71.8572 16.8612V8.90253H75.9165V31.2764ZM68.0537 27.5367C69.1617 27.5367 70.1206 27.1425 70.9303 26.3541C71.7613 25.5657 72.1768 24.5429 72.1768 23.2857C72.1768 22.0285 71.7613 21.0057 70.9303 20.2173C70.1206 19.4076 69.1617 19.0027 68.0537 19.0027C66.9456 19.0027 65.9761 19.4076 65.1451 20.2173C64.3353 21.0057 63.9305 22.0285 63.9305 23.2857C63.9305 24.5429 64.3353 25.5657 65.1451 26.3541C65.9548 27.1425 66.9243 27.5367 68.0537 27.5367Z" fill="white"/>
<mask id="path-2-outside-1_1601_54601" maskUnits="userSpaceOnUse" x="32" y="8.27637" width="26" height="24" fill="black">
<rect fill="white" x="32" y="8.27637" width="26" height="24"/>
<path d="M49.8032 31.2764H47.0864L46.8626 29.007C45.5628 30.6478 43.7942 31.4681 41.5568 31.4681C39.3194 31.4681 37.455 30.6797 35.9634 29.1029C34.4931 27.5261 33.7579 25.587 33.7579 23.2857C33.7579 20.9844 34.4931 19.0453 35.9634 17.4685C37.455 15.8704 39.3194 15.0713 41.5568 15.0713C43.7942 15.0713 45.5628 15.9023 46.8626 17.5644L47.0864 15.2951H49.8032V31.2764ZM41.9404 27.5367C43.0484 27.5367 44.0073 27.1425 44.817 26.3541C45.648 25.5657 46.0636 24.5429 46.0636 23.2857C46.0636 22.0285 45.648 21.0057 44.817 20.2173C44.0073 19.4076 43.0484 19.0027 41.9404 19.0027C40.8323 19.0027 39.8628 19.4076 39.0318 20.2173C38.2221 21.0057 37.8172 22.0285 37.8172 23.2857C37.8172 24.5429 38.2221 25.5657 39.0318 26.3541C39.8415 27.1425 40.811 27.5367 41.9404 27.5367ZM54.5841 13.8567C53.9235 13.8567 53.3589 13.6543 52.8901 13.2494C52.4426 12.8446 52.2189 12.3438 52.2189 11.7472C52.2189 11.1506 52.4426 10.6498 52.8901 10.245C53.3589 9.8401 53.9235 9.63767 54.5841 9.63767C55.266 9.63767 55.8306 9.8401 56.2781 10.245C56.7469 10.6498 56.9813 11.1506 56.9813 11.7472C56.9813 12.3438 56.7469 12.8446 56.2781 13.2494C55.8306 13.6543 55.266 13.8567 54.5841 13.8567ZM52.5704 31.2764V15.2951H56.6297V31.2764H52.5704Z"/>
</mask>
<path d="M49.8032 31.2764V32.0754H50.6022V31.2764H49.8032ZM47.0864 31.2764L46.2911 31.3548L46.3622 32.0754H47.0864V31.2764ZM46.8626 29.007L47.6578 28.9286L47.4639 26.9613L46.2363 28.5108L46.8626 29.007ZM35.9634 29.1029L35.3789 29.6479L35.3829 29.652L35.9634 29.1029ZM35.9634 17.4685L35.3792 16.9233L35.3789 16.9236L35.9634 17.4685ZM46.8626 17.5644L46.2332 18.0567L47.4621 19.6281L47.6578 17.6428L46.8626 17.5644ZM47.0864 15.2951V14.496H46.3622L46.2911 15.2167L47.0864 15.2951ZM49.8032 15.2951H50.6022V14.496H49.8032V15.2951ZM44.817 26.3541L44.267 25.7744L44.2596 25.7816L44.817 26.3541ZM44.817 20.2173L44.252 20.7823L44.2594 20.7898L44.267 20.797L44.817 20.2173ZM39.0318 20.2173L39.5892 20.7898L39.5894 20.7896L39.0318 20.2173ZM39.0318 26.3541L39.5892 25.7816L39.5892 25.7816L39.0318 26.3541ZM49.8032 30.4773H47.0864V32.0754H49.8032V30.4773ZM47.8816 31.198L47.6578 28.9286L46.0674 29.0854L46.2911 31.3548L47.8816 31.198ZM46.2363 28.5108C45.0997 29.9456 43.5695 30.6691 41.5568 30.6691V32.2672C44.0189 32.2672 46.0259 31.35 47.489 29.5032L46.2363 28.5108ZM41.5568 30.6691C39.5314 30.6691 37.8794 29.9656 36.5439 28.5538L35.3829 29.652C37.0306 31.3939 39.1074 32.2672 41.5568 32.2672V30.6691ZM36.5478 28.558C35.2253 27.1397 34.557 25.3997 34.557 23.2857H32.9589C32.9589 25.7743 33.7609 27.9125 35.3789 29.6478L36.5478 28.558ZM34.557 23.2857C34.557 21.1717 35.2253 19.4318 36.5478 18.0135L35.3789 16.9236C33.7609 18.6589 32.9589 20.7971 32.9589 23.2857H34.557ZM36.5475 18.0137C37.884 16.5818 39.535 15.8704 41.5568 15.8704V14.2723C39.1038 14.2723 37.0259 15.159 35.3792 16.9233L36.5475 18.0137ZM41.5568 15.8704C43.5655 15.8704 45.0951 16.6014 46.2332 18.0567L47.4921 17.0721C46.0305 15.2033 44.0229 14.2723 41.5568 14.2723V15.8704ZM47.6578 17.6428L47.8816 15.3735L46.2911 15.2167L46.0674 17.486L47.6578 17.6428ZM47.0864 16.0941H49.8032V14.496H47.0864V16.0941ZM49.0041 15.2951V31.2764H50.6022V15.2951H49.0041ZM41.9404 28.3358C43.2612 28.3358 44.4189 27.8571 45.3745 26.9266L44.2596 25.7816C43.5957 26.428 42.8356 26.7377 41.9404 26.7377V28.3358ZM45.367 26.9338C46.3735 25.979 46.8626 24.7384 46.8626 23.2857H45.2645C45.2645 24.3474 44.9226 25.1525 44.267 25.7744L45.367 26.9338ZM46.8626 23.2857C46.8626 21.833 46.3735 20.5925 45.367 19.6376L44.267 20.797C44.9226 21.419 45.2645 22.224 45.2645 23.2857H46.8626ZM45.382 19.6523C44.4281 18.6983 43.2681 18.2037 41.9404 18.2037V19.8018C42.8287 19.8018 43.5865 20.1169 44.252 20.7823L45.382 19.6523ZM41.9404 18.2037C40.6134 18.2037 39.4466 18.6975 38.4741 19.645L39.5894 20.7896C40.279 20.1177 41.0513 19.8018 41.9404 19.8018V18.2037ZM38.4743 19.6448C37.492 20.6013 37.0181 21.8396 37.0181 23.2857H38.6163C38.6163 22.2175 38.9521 21.4102 39.5892 20.7898L38.4743 19.6448ZM37.0181 23.2857C37.0181 24.7319 37.492 25.9702 38.4743 26.9266L39.5892 25.7816C38.9521 25.1613 38.6163 24.3539 38.6163 23.2857H37.0181ZM38.4743 26.9266C39.4331 27.8602 40.6026 28.3358 41.9404 28.3358V26.7377C41.0194 26.7377 40.2499 26.4249 39.5892 25.7816L38.4743 26.9266ZM52.8901 13.2494L52.354 13.842L52.3608 13.8482L52.3678 13.8542L52.8901 13.2494ZM52.8901 10.245L52.3678 9.64021L52.3608 9.64624L52.354 9.65243L52.8901 10.245ZM56.2781 10.245L55.742 10.8375L55.7488 10.8437L55.7558 10.8497L56.2781 10.245ZM56.2781 13.2494L55.7558 12.6447L55.7488 12.6507L55.742 12.6569L56.2781 13.2494ZM52.5704 31.2764H51.7714V32.0754H52.5704V31.2764ZM52.5704 15.2951V14.496H51.7714V15.2951H52.5704ZM56.6297 15.2951H57.4288V14.496H56.6297V15.2951ZM56.6297 31.2764V32.0754H57.4288V31.2764H56.6297ZM54.5841 13.0577C54.1015 13.0577 53.7259 12.9155 53.4124 12.6447L52.3678 13.8542C52.9918 14.3931 53.7456 14.6558 54.5841 14.6558V13.0577ZM53.4262 12.6569C53.1439 12.4016 53.0179 12.1151 53.0179 11.7472H51.4198C51.4198 12.5726 51.7412 13.2876 52.354 13.842L53.4262 12.6569ZM53.0179 11.7472C53.0179 11.3793 53.1439 11.0928 53.4262 10.8375L52.354 9.65243C51.7412 10.2068 51.4198 10.9218 51.4198 11.7472H53.0179ZM53.4124 10.8497C53.7259 10.5789 54.1015 10.4367 54.5841 10.4367V8.83861C53.7456 8.83861 52.9918 9.10126 52.3678 9.64021L53.4124 10.8497ZM54.5841 10.4367C55.0955 10.4367 55.4607 10.583 55.742 10.8375L56.8142 9.65243C56.2005 9.09719 55.4364 8.83861 54.5841 8.83861V10.4367ZM55.7558 10.8497C56.0565 11.1094 56.1822 11.3927 56.1822 11.7472H57.7804C57.7804 10.9084 57.4373 10.1902 56.8004 9.64021L55.7558 10.8497ZM56.1822 11.7472C56.1822 12.1017 56.0565 12.385 55.7558 12.6447L56.8004 13.8542C57.4373 13.3042 57.7804 12.586 57.7804 11.7472H56.1822ZM55.742 12.6569C55.4607 12.9114 55.0955 13.0577 54.5841 13.0577V14.6558C55.4364 14.6558 56.2005 14.3972 56.8142 13.842L55.742 12.6569ZM53.3695 31.2764V15.2951H51.7714V31.2764H53.3695ZM52.5704 16.0941H56.6297V14.496H52.5704V16.0941ZM55.8306 15.2951V31.2764H57.4288V15.2951H55.8306ZM56.6297 30.4773H52.5704V32.0754H56.6297V30.4773Z" fill="white" mask="url(#path-2-outside-1_1601_54601)"/>
<path opacity="0.35" d="M83.0936 14.2308C83.4238 14.2308 83.7062 14.3373 83.9406 14.5504C84.175 14.7528 84.2922 15.0085 84.2922 15.3175C84.2922 15.6158 84.175 15.8715 83.9406 16.0846C83.7062 16.287 83.4238 16.3882 83.0936 16.3882C82.7526 16.3882 82.465 16.287 82.2306 16.0846C81.9962 15.8715 81.879 15.6158 81.879 15.3175C81.879 15.0085 81.9962 14.7528 82.2306 14.5504C82.465 14.3373 82.7526 14.2308 83.0936 14.2308ZM91.6231 10.1395H90.808C90.0835 10.1395 89.5295 10.3686 89.146 10.8267C88.7624 11.2742 88.5706 11.8868 88.5706 12.6646V16.2764H86.541V8.28571H87.8994L88.1232 10.0117C88.7731 8.78646 89.8278 8.17384 91.2875 8.17384H91.6231V10.1395ZM101.157 16.2764H99.7983L99.6544 15.0298C99.1004 15.9354 98.1895 16.3882 96.9216 16.3882C95.7923 16.3882 94.924 16.042 94.3167 15.3495C93.72 14.6463 93.4217 13.698 93.4217 12.5048V8.28571H95.4513V12.3769C95.4513 13.7407 96.048 14.4225 97.2413 14.4225C97.8379 14.4225 98.3013 14.2414 98.6316 13.8792C98.9619 13.5063 99.1271 12.9469 99.1271 12.2011V8.28571H101.157V16.2764Z" fill="white"/>
<path d="M9.57332 8.85019C8.43671 8.1569 8.0803 6.65091 8.95673 5.64872C10.3606 4.04344 12.0788 2.71712 14.019 1.75264C16.6936 0.423041 19.6885 -0.168597 22.6815 0.0413939C25.6745 0.251387 28.5523 1.25506 31.0051 2.94439C33.4579 4.63372 35.3929 6.94476 36.6018 9.62878C37.8107 12.3128 38.2477 15.2682 37.8659 18.1769C37.484 21.0856 36.2978 23.8374 34.4348 26.1363C32.5717 28.4352 30.1025 30.194 27.2928 31.2236C25.2224 31.9822 23.0248 32.3237 20.8312 32.2368C19.5329 32.1853 18.6865 30.9388 18.9289 29.6624C19.1686 28.4007 20.3859 27.5927 21.67 27.5745C23.0118 27.5555 24.3462 27.3112 25.6136 26.8468C27.6088 26.1157 29.3623 24.8667 30.6853 23.2342C32.0082 21.6018 32.8506 19.6476 33.1218 17.5821C33.3929 15.5166 33.0826 13.4179 32.2241 11.5119C31.3656 9.60591 29.9916 7.96479 28.2498 6.76516C26.508 5.56553 24.4644 4.8528 22.339 4.70368C20.2136 4.55456 18.0868 4.9747 16.1876 5.91887C14.9933 6.51257 13.9174 7.29933 13.0027 8.24083C12.1017 9.16826 10.6772 9.52352 9.57332 8.85019Z" fill="white"/>
<path d="M17 42C19.4853 42 21.5 39.9853 21.5 37.5V9.75C19.0147 9.75 17 11.7647 17 14.25V42Z" fill="white"/>
</svg>
